<svg width="18" height="12" viewBox="0 0 18 12" fill="none" xmlns="http://www.w3.org/2000/svg">
<path d="M1.00006 1C1.13167 0.999239 1.26213 1.02446 1.38397 1.07423C1.5058 1.12399 1.61662 1.19732 1.71006 1.29L9.00006 8.59L16.2901 1.29C16.4784 1.1017 16.7338 0.995909 17.0001 0.995909C17.2664 0.995909 17.5218 1.1017 17.7101 1.29C17.8984 1.4783 18.0042 1.7337 18.0042 2C18.0042 2.2663 17.8984 2.5217 17.7101 2.71L9.71006 10.71C9.61709 10.8037 9.5065 10.8781 9.38464 10.9289C9.26278 10.9797 9.13207 11.0058 9.00006 11.0058C8.86805 11.0058 8.73734 10.9797 8.61548 10.9289C8.49362 10.8781 8.38302 10.8037 8.29006 10.71L0.29006 2.71C0.196331 2.61704 0.121935 2.50644 0.071167 2.38458C0.0203991 2.26272 -0.00573921 2.13201 -0.00573921 2C-0.00573921 1.86799 0.0203991 1.73728 0.071167 1.61542C0.121935 1.49356 0.196331 1.38296 0.29006 1.29C0.383501 1.19732 0.494314 1.12399 0.616152 1.07423C0.737989 1.02446 0.868452 0.999239 1.00006 1Z" fill="#DF9130"/>
</svg>
