<svg width="34" height="25" viewBox="0 0 34 25" fill="none" xmlns="http://www.w3.org/2000/svg">
<path d="M28.7 24.6998C28.3964 24.6998 28.15 24.4534 28.15 24.1498V9.8498C28.15 9.5462 28.3964 9.2998 28.7 9.2998C29.0036 9.2998 29.25 9.5462 29.25 9.8498V24.1498C29.25 24.4534 29.0036 24.6998 28.7 24.6998Z" fill="#DF9130"/>
<path d="M4.50001 24.6998C4.19641 24.6998 3.95001 24.4534 3.95001 24.1498V9.8498C3.95001 9.5462 4.19641 9.2998 4.50001 9.2998C4.80361 9.2998 5.05001 9.5462 5.05001 9.8498V24.1498C5.05001 24.4534 4.80361 24.6998 4.50001 24.6998Z" fill="#DF9130"/>
<path d="M16.6 10.8755C16.4911 10.8755 16.3833 10.8436 16.2898 10.7798L2.90831 1.62343C2.65751 1.45183 2.59371 1.10973 2.76531 0.858928C2.93691 0.608128 3.27791 0.543228 3.52981 0.715928L16.6 9.65893L26.4538 2.91703C26.7057 2.74543 27.0478 2.81033 27.2183 3.06003C27.3899 3.31083 27.3261 3.65293 27.0753 3.82453L16.9113 10.7787C16.8167 10.8436 16.7089 10.8755 16.6 10.8755Z" fill="#DF9130"/>
<path d="M30.35 24.7H2.85001C1.33421 24.7 0.100006 23.4658 0.100006 21.95V3.25C0.100006 2.9464 0.346406 2.7 0.650006 2.7C0.953606 2.7 1.20001 2.9464 1.20001 3.25V21.95C1.20001 22.8597 1.94031 23.6 2.85001 23.6H30.35C31.2597 23.6 32 22.8597 32 21.95V3.25C32 2.3403 31.2597 1.6 30.35 1.6C30.0464 1.6 29.8 1.3536 29.8 1.05C29.8 0.7464 30.0464 0.5 30.35 0.5C31.8658 0.5 33.1 1.7342 33.1 3.25V21.95C33.1 23.4658 31.8658 24.7 30.35 24.7Z" fill="#DF9130"/>
<path d="M16.6 15.9C16.4911 15.9 16.3822 15.8681 16.2876 15.8032L1.27261 5.4478C0.537806 4.9418 0.100006 4.1058 0.100006 3.2137C0.100006 1.7177 1.31771 0.5 2.81371 0.5H30.3852C31.8823 0.5 33.1 1.7177 33.1 3.2137C33.1 4.1058 32.6622 4.9407 31.9274 5.4478L16.9124 15.8032C16.8178 15.8681 16.7089 15.9 16.6 15.9ZM2.81371 1.6C1.92381 1.6 1.20001 2.3238 1.20001 3.2137C1.20001 3.745 1.46071 4.2411 1.89741 4.5425L16.6 14.6823L31.3026 4.5425C31.7393 4.2411 32 3.745 32 3.2137C32 2.3238 31.2762 1.6 30.3863 1.6H2.81371Z" fill="#DF9130"/>
</svg>
