<svg width="150" height="150" viewBox="0 0 150 150" fill="none" xmlns="http://www.w3.org/2000/svg">
<path d="M76.1159 70.8857C89.2681 70.8857 99.9709 60.183 99.9709 47.0275C99.9709 33.8769 89.2698 23.1791 76.1159 23.1791C62.9654 23.1791 52.2676 33.8769 52.2676 47.0275C52.2676 60.183 62.9654 70.8857 76.1159 70.8857Z" fill="#191C20"/>
<path d="M93.5095 66.9709C88.8183 71.1115 82.6666 73.6467 75.9315 73.6467C69.2589 73.6467 62.9837 71.1577 58.3056 67.0846C58.2661 67.111 57.8672 67.1489 57.8227 67.1687C50.115 70.8148 45.1304 77.1132 45.1304 84.9066V127.803H105.874V84.9016C105.872 77.1379 101.356 70.6154 93.5095 66.9709Z" fill="#191C20"/>
<path d="M31.3235 82.0813V102.954H6.47461V78.4286C6.47461 73.9088 9.18615 70.5709 13.5345 68.5088C16.3763 70.8659 20.2697 72.2852 24.2405 72.2852C27.9839 72.2852 31.551 71.0143 34.3153 68.8945L36.3081 70.2973C32.0422 74.7297 31.3235 81.75 31.3235 82.0813ZM24.4927 69.5242C16.9697 69.5242 10.8493 63.4006 10.8493 55.8742C10.8493 48.3478 16.9697 42.2242 24.4927 42.2242C32.0224 42.2242 38.1493 48.3478 38.1493 55.8742C38.1493 63.4006 32.0241 69.5242 24.4927 69.5242Z" fill="#191C20"/>
<path d="M114.872 70.683L117.054 69.2819C119.822 71.3967 123.331 72.6692 127.073 72.6692C131.044 72.6692 134.835 71.25 137.678 68.8929C142.028 70.9566 144.522 74.2929 144.522 78.8126V102.954H119.677V82.467C119.677 82.1357 119.141 75.1137 114.872 70.683ZM113.273 56.2566C113.273 48.7302 119.4 42.6066 126.93 42.6066C134.453 42.6066 140.573 48.7302 140.573 56.2566C140.573 63.783 134.453 69.9082 126.93 69.9082C119.4 69.9082 113.273 63.783 113.273 56.2566Z" fill="#191C20"/>
<path d="M75.5837 76.6385C59.3903 76.6385 46.2134 63.4599 46.2134 47.2599C46.2134 31.0648 59.3903 17.8896 75.5837 17.8896C91.7804 17.8896 104.961 31.0648 104.961 47.2599C104.961 63.4599 91.7804 76.6385 75.5837 76.6385ZM75.5837 26.1725C63.9546 26.1725 54.4963 35.6324 54.4963 47.2599C54.4963 58.894 63.9546 68.3555 75.5837 68.3555C87.2145 68.3555 96.6777 58.894 96.6777 47.2599C96.676 35.6324 87.2128 26.1725 75.5837 26.1725Z" fill="#DF9130"/>
<path d="M106.879 130.937C104.591 130.937 102.737 129.082 102.737 126.794V85.134C102.737 78.3494 98.8748 72.8456 91.8627 69.6412C89.7825 68.6901 88.8693 66.234 89.8188 64.1522C90.7715 62.0703 93.2243 61.1555 95.3078 62.1082C105.295 66.6758 111.02 75.0676 111.02 85.1357V126.794C111.022 129.082 109.167 130.937 106.879 130.937Z" fill="#DF9130"/>
<path d="M44.6985 130.94C42.4105 130.94 40.5562 129.086 40.5562 126.798V85.1357C40.5562 75.234 46.0633 66.9494 55.6666 62.4066C57.7369 61.4258 60.2029 62.311 61.182 64.378C62.1611 66.445 61.2776 68.9143 59.2105 69.8934C52.4259 73.1027 48.8408 78.3742 48.8408 85.1357V126.796C48.8408 129.086 46.9864 130.94 44.6985 130.94Z" fill="#DF9130"/>
<path d="M24.4779 75.1615C13.912 75.1615 5.3125 66.5604 5.3125 55.9895C5.3125 45.417 13.912 36.8176 24.4779 36.8176C35.0537 36.8176 43.6581 45.417 43.6581 55.9895C43.6565 66.5604 35.0537 75.1615 24.4779 75.1615ZM24.4779 45.1005C18.4779 45.1005 13.5955 49.9846 13.5955 55.9879C13.5955 61.9912 18.4779 66.8753 24.4779 66.8753C30.4878 66.8753 35.3735 61.9912 35.3735 55.9879C35.3735 49.9846 30.4861 45.1005 24.4779 45.1005Z" fill="#DF9130"/>
<path d="M6.08567 106.869C3.79776 106.869 1.94336 105.015 1.94336 102.727V78.544C1.94336 71.8978 5.39501 66.6017 11.662 63.6313C13.7274 62.6555 16.1983 63.5324 17.1774 65.6011C18.1582 67.6681 17.278 70.1374 15.2093 71.1165C11.8565 72.7055 10.228 75.1352 10.228 78.544V102.727C10.228 105.015 8.37358 106.869 6.08567 106.869Z" fill="#DF9130"/>
<path d="M126.847 75.1615C116.276 75.1615 107.675 66.5604 107.675 55.9895C107.675 45.417 116.276 36.8176 126.847 36.8176C137.418 36.8176 146.018 45.417 146.018 55.9895C146.018 66.5604 137.418 75.1615 126.847 75.1615ZM126.847 45.1005C120.842 45.1005 115.96 49.9846 115.96 55.9879C115.96 61.9912 120.844 66.8753 126.847 66.8753C132.851 66.8753 137.733 61.9912 137.733 55.9879C137.733 49.9846 132.851 45.1005 126.847 45.1005Z" fill="#DF9130"/>
<path d="M145.484 106.869C143.197 106.869 141.343 105.015 141.343 102.727V78.544C141.343 75.0676 139.65 72.6017 136.162 71.0061C134.082 70.055 133.169 67.5956 134.122 65.517C135.074 63.4352 137.534 62.5253 139.611 63.4764C146.069 66.4335 149.626 71.7841 149.626 78.5456V102.729C149.626 105.015 147.772 106.869 145.484 106.869Z" fill="#DF9130"/>
</svg>
