<svg width="186" height="71" viewBox="0 0 186 71" fill="none" xmlns="http://www.w3.org/2000/svg">
<g clip-path="url(#clip0_807_8420)">
<path d="M54.0698 49.9457V52.9535C54.0698 58.9646 51.0719 61.9713 45.0761 61.9735H30.0875V70.9935H24.0928V40.9257H45.0761C51.0741 40.9257 54.072 43.9324 54.0698 49.9457ZM48.0751 49.9457C48.0751 47.9427 47.0754 46.9412 45.0761 46.9412H30.0875V55.9612H45.0761C47.0776 55.9612 48.0772 54.9586 48.0751 52.9535V49.9457Z" fill="black"/>
<path d="M87.0458 70.9935H81.0511V64.978H63.0635V70.9935H57.0688V49.4439C57.0688 43.4327 60.0667 40.4271 66.0626 40.4271H78.0521C84.0501 40.4271 87.048 43.4327 87.0458 49.4439V70.9935ZM81.0511 58.982V49.4439C81.0511 47.4409 80.0514 46.4394 78.0521 46.4394H66.0626C64.0632 46.4394 63.0635 47.4409 63.0635 49.4439V58.982H81.0511Z" fill="black"/>
<path d="M120.022 70.9935H114.027V58.982H96.0396V71.0098H90.0449V40.9257H96.0396V52.9535H114.027V40.9257H120.022V70.9935Z" fill="black"/>
<path d="M152.998 70.9935H147.003V50.138L129.016 70.9935H123.021V40.9257H129.016V61.7812L147.003 40.9257H152.998V70.9935Z" fill="black"/>
<path d="M185.974 46.9412H173.981V70.9935H167.983V46.9412H155.994V40.9257H185.971L185.974 46.9412Z" fill="black"/>
<path d="M81.9382 16.8245H75.9174C74.1845 16.8245 73.3246 15.9555 73.3375 14.2176V10.7862C73.3375 9.04824 74.1975 8.18578 75.9174 8.19881H81.9382V9.92265H75.9174C75.8004 9.90574 75.6811 9.91641 75.5689 9.95382C75.4568 9.99124 75.3549 10.0544 75.2713 10.1382C75.1877 10.222 75.1247 10.3242 75.0874 10.4367C75.0501 10.5492 75.0395 10.6689 75.0564 10.7862V14.2339C75.0395 14.3512 75.0501 14.4709 75.0874 14.5834C75.1247 14.6959 75.1877 14.7981 75.2713 14.8819C75.3549 14.9657 75.4568 15.0288 75.5689 15.0663C75.6811 15.1037 75.8004 15.1143 75.9174 15.0974H81.9382V16.8245Z" fill="black"/>
<path d="M91.3965 9.92266H87.9556V16.8245H86.2368V9.92266H82.7959V8.19882H91.3965V9.92266Z" fill="black"/>
<path d="M100.858 10.7862V11.6465C100.858 13.3736 99.9982 14.2361 98.2783 14.2339H93.9764V16.8408H92.2576V8.19882H98.2783C99.9961 8.19882 100.856 9.06128 100.858 10.7862ZM99.1361 10.7862C99.1529 10.6692 99.1422 10.5499 99.1051 10.4377C99.068 10.3254 99.0053 10.2234 98.9222 10.1397C98.839 10.0559 98.7375 9.99273 98.6257 9.95506C98.514 9.9174 98.3951 9.9063 98.2783 9.92266H93.9764V12.51H98.2783C98.3951 12.5264 98.514 12.5153 98.6257 12.4776C98.7375 12.44 98.839 12.3768 98.9222 12.293C99.0053 12.2093 99.068 12.1073 99.1051 11.9951C99.1422 11.8828 99.1529 11.7635 99.1361 11.6465V10.7862Z" fill="black"/>
<path d="M110.317 14.3805C110.317 16.1033 109.457 16.9657 107.737 16.9679H104.299C102.579 16.9679 101.719 16.1055 101.719 14.3805V10.6428C101.719 8.91573 102.579 8.05219 104.299 8.05219H107.74C109.462 8.05219 110.322 8.91573 110.32 10.6428L110.317 14.3805ZM108.598 14.3805V10.6428C108.615 10.5253 108.605 10.4052 108.568 10.2923C108.531 10.1794 108.468 10.0767 108.384 9.9925C108.301 9.90829 108.199 9.84486 108.086 9.80727C107.974 9.76968 107.854 9.75898 107.737 9.77602H104.299C104.182 9.75967 104.063 9.77076 103.952 9.80843C103.84 9.84609 103.738 9.9093 103.655 9.99305C103.572 10.0768 103.509 10.1788 103.472 10.291C103.435 10.4032 103.425 10.5225 103.441 10.6396V14.3805C103.424 14.4974 103.435 14.6167 103.472 14.7288C103.509 14.8409 103.572 14.9428 103.655 15.0263C103.739 15.1098 103.84 15.1727 103.952 15.2099C104.064 15.2472 104.183 15.2578 104.299 15.2408H107.74C107.856 15.2571 107.975 15.246 108.086 15.2085C108.198 15.171 108.299 15.1081 108.382 15.0247C108.465 14.9414 108.528 14.8398 108.566 14.728C108.603 14.6163 108.614 14.4973 108.598 14.3805Z" fill="black"/>
<path d="M119.778 16.8245H118.059V10.8416L112.896 16.8245H111.178V8.19882H112.896V14.1785L118.059 8.19882H119.778V16.8245Z" fill="black"/>
<path d="M129.237 9.92266H125.799V16.8245H124.077V9.92266H120.639V8.19882H129.237V9.92266Z" fill="black"/>
<path d="M138.698 9.92266H131.82V11.6465H136.979V13.3606H131.82V15.0844H138.698V16.8115H130.098V8.19882H138.698V9.92266Z" fill="black"/>
<path d="M148.163 16.8245H146.441V9.92265H143.861C143.442 9.92265 143.156 10.2094 143.003 10.7862L141.307 16.8245H139.559C140.619 13.3725 141.191 11.3597 141.278 10.7862C141.785 9.04824 142.645 8.18578 143.858 8.19881H148.163V16.8245Z" fill="black"/>
<path d="M155.038 16.8245H149.018V8.19882H150.74V10.7862H155.038C156.761 10.7862 157.62 11.6487 157.618 13.3736V14.2339C157.618 15.961 156.758 16.8245 155.038 16.8245ZM155.899 13.3606C155.916 13.2432 155.906 13.1236 155.868 13.0111C155.831 12.8986 155.768 12.7964 155.685 12.7125C155.601 12.6287 155.499 12.5656 155.387 12.5282C155.275 12.4908 155.155 12.4801 155.038 12.497H150.74V15.0844H155.038C155.155 15.1013 155.275 15.0906 155.387 15.0532C155.499 15.0158 155.601 14.9527 155.685 14.8689C155.768 14.785 155.831 14.6828 155.868 14.5703C155.906 14.4578 155.916 14.3382 155.899 14.2209V13.3606Z" fill="black"/>
<path d="M167.08 16.8245H165.358V13.3606H160.185V16.8245H158.466V8.19882H160.185V11.6465H165.345V8.19882H167.067L167.08 16.8245Z" fill="black"/>
<path d="M176.542 16.8245H174.807V15.0975H169.66V16.8245H167.941V10.6331C167.941 8.90597 168.801 8.04242 170.521 8.04242H173.958C175.691 8.04242 176.558 8.90597 176.558 10.6331L176.542 16.8245ZM174.807 13.3606V10.6428C174.823 10.5265 174.813 10.4078 174.777 10.296C174.741 10.1842 174.679 10.0824 174.597 9.99845C174.515 9.91452 174.414 9.85077 174.304 9.81218C174.193 9.7736 174.075 9.76123 173.958 9.77603H170.521C170.404 9.75912 170.285 9.76979 170.172 9.8072C170.06 9.84462 169.958 9.90774 169.875 9.99157C169.791 10.0754 169.728 10.1776 169.691 10.2901C169.654 10.4026 169.643 10.5222 169.66 10.6396V13.3606H174.807Z" fill="black"/>
<path d="M179.979 8.19883H186V16.8245H184.281V14.2176H182.416L179.836 16.8245H177.406L179.986 14.2176C178.268 14.2176 177.408 13.3551 177.406 11.6302V10.7862C177.406 9.05912 178.264 8.19665 179.979 8.19883ZM179.118 11.6465C179.101 11.7638 179.112 11.8835 179.149 11.996C179.187 12.1085 179.25 12.2107 179.333 12.2945C179.417 12.3783 179.519 12.4415 179.631 12.4789C179.743 12.5163 179.862 12.527 179.979 12.5101H184.281V9.92267H179.979C179.862 9.90575 179.743 9.91642 179.631 9.95383C179.519 9.99125 179.417 10.0544 179.333 10.1382C179.25 10.222 179.187 10.3242 179.149 10.4367C179.112 10.5492 179.101 10.6689 179.118 10.7862V11.6465Z" fill="black"/>
<path d="M81.9381 29.4584H79.7449L77.0059 26.0107H75.0563V29.4584H73.3375V20.8327H75.0563V24.2836H77.0059L79.7579 20.8327H81.9511L78.4972 25.1472L81.9381 29.4584Z" fill="black"/>
<path d="M90.9774 27.0144C90.9774 28.7415 90.1174 29.604 88.3975 29.6018H84.9469C83.227 29.6018 82.367 28.7393 82.367 27.0144V23.2767C82.367 21.5518 83.227 20.6893 84.9469 20.6893H88.378C90.0979 20.6893 90.9579 21.5518 90.9579 23.2767L90.9774 27.0144ZM89.2553 27.0144V23.2767C89.273 23.1579 89.2623 23.0366 89.2241 22.9228C89.186 22.8089 89.1214 22.7058 89.0358 22.6218C88.9502 22.5378 88.8459 22.4754 88.7315 22.4397C88.6172 22.404 88.496 22.396 88.378 22.4164H84.9469C84.8302 22.3996 84.7112 22.4103 84.5993 22.4475C84.4874 22.4848 84.3857 22.5476 84.3022 22.631C84.2187 22.7145 84.1557 22.8162 84.1181 22.9283C84.0806 23.0403 84.0695 23.1596 84.0858 23.2767V27.0144C84.069 27.1318 84.0796 27.2514 84.1169 27.3639C84.1542 27.4764 84.2172 27.5786 84.3007 27.6624C84.3843 27.7463 84.4862 27.8094 84.5984 27.8468C84.7106 27.8842 84.8299 27.8949 84.9469 27.878H88.378C88.4955 27.896 88.6156 27.8862 88.7286 27.8493C88.8416 27.8124 88.9444 27.7494 89.0287 27.6654C89.1131 27.5815 89.1767 27.4788 89.2143 27.3658C89.252 27.2527 89.2627 27.1324 89.2455 27.0144H89.2553Z" fill="black"/>
<path d="M102.148 29.4584H100.426V24.0555L96.9884 29.4584L93.5475 24.0555V29.4584H91.8254V20.8327H93.5475L96.9884 26.2388L100.426 20.8327H102.148V29.4584Z" fill="black"/>
<path d="M111.606 29.4584H109.888V22.5598H104.728V29.4584H102.999V20.8327H111.6L111.606 29.4584Z" fill="black"/>
<path d="M121.068 29.4584H119.349V27.7346H114.186V29.4584H112.468V23.2669C112.468 21.542 113.327 20.6795 115.047 20.6795H118.488C120.206 20.6795 121.066 21.542 121.068 23.2669V29.4584ZM119.349 26.0107V23.2767C119.366 23.1596 119.355 23.0403 119.317 22.9283C119.279 22.8162 119.216 22.7144 119.133 22.631C119.049 22.5476 118.948 22.4847 118.836 22.4475C118.724 22.4103 118.605 22.3996 118.488 22.4164H115.047C114.931 22.3996 114.812 22.4103 114.7 22.4475C114.588 22.4847 114.486 22.5476 114.403 22.631C114.319 22.7144 114.256 22.8162 114.219 22.9283C114.181 23.0403 114.17 23.1596 114.186 23.2767V26.0107H119.349Z" fill="black"/>
<path d="M130.53 29.4584H128.808V26.0107H123.648V29.4584H121.929V20.8327H123.648V24.2836H128.808V20.8327H130.53V29.4584Z" fill="black"/>
<path d="M139.988 29.4584H138.269V23.4787L133.11 29.4584H131.388V20.8327H133.11V26.8156L138.269 20.8327H139.988V29.4584Z" fill="black"/>
<path d="M143.429 20.8327H149.463V29.4584H147.741V26.871H145.879L143.289 29.4584H140.852L143.432 26.871C141.71 26.871 140.85 26.0086 140.852 24.2836V23.4201C140.85 21.6952 141.709 20.8327 143.429 20.8327ZM142.568 24.2836C142.551 24.401 142.562 24.5206 142.599 24.6331C142.636 24.7456 142.699 24.8478 142.783 24.9317C142.867 25.0155 142.968 25.0786 143.081 25.116C143.193 25.1534 143.312 25.1641 143.429 25.1472H147.728V22.5598H143.429C143.312 22.543 143.193 22.5536 143.082 22.5909C142.97 22.6281 142.868 22.6909 142.784 22.7744C142.701 22.8578 142.638 22.9596 142.6 23.0717C142.563 23.1837 142.552 23.303 142.568 23.4201V24.2836Z" fill="black"/>
<path d="M26.3542 8.62245L25.8571 5.58536L12.8375 4.29819L12.1682 8.09454L34.0645 10.7895L26.3542 8.62245Z" fill="#DF9130"/>
<path d="M36.7711 9.85097L26.8578 5.0705L26.5231 5.53323L26.9683 8.13365L34.3407 10.1834L36.7711 9.85097Z" fill="#DF9130"/>
<path d="M35.923 12.0049L34.8411 15.3158L45.076 25.5969L34.4934 16.3846L33.7623 18.6266L45.5764 31.7036L45.3912 34.1867L48.8873 38.0743C47.7631 27.816 43.4904 17.7304 41.5896 15.1659C39.6889 12.6013 35.923 12.0049 35.923 12.0049Z" fill="#DF9130"/>
<path d="M52.5752 3.84198L43.9551 8.91899L52.5914 5.2758C54.398 5.54301 56.0096 6.45218 57.4457 7.94791C56.6789 6.05136 54.4792 4.25909 52.5752 3.84198Z" fill="#DF9130"/>
<path d="M33.1548 15.2245L33.0605 15.6677L6.037 11.741L2.29393 11.2392L1.18921 11.7345L11.918 18.3235L32.3587 18.9296L33.1548 15.2245Z" fill="#DF9130"/>
<path d="M11.0993 70.9348C11.5119 70.9609 11.9441 70.9837 12.3989 70.9935C12.8538 71.0033 13.3022 70.9935 13.7246 70.9935C13.4495 65.4298 13.1723 59.8673 12.8928 54.3058C10.5707 49.683 9.89756 44.402 10.9855 39.342L12.7239 20.4417L9.33821 18.5093L7.18399 41.8675C7.11941 44.1763 7.18124 46.4869 7.3692 48.7889C7.48776 50.4583 7.69383 52.1204 7.98654 53.7681C8.25623 55.2476 8.42518 55.7462 8.91256 58.1119C9.23748 59.6435 9.42594 60.7384 9.67612 62.1494C10.053 64.2154 10.5567 67.1874 11.0993 70.9348Z" fill="#DF9130"/>
<path d="M20.0962 20.9142L18.8745 20.7415L18.1922 49.2027L20.0962 20.9142Z" fill="#DF9130"/>
<path d="M21.0483 20.3081L20.145 20.3015C19.4951 29.9342 18.8453 39.569 18.1955 49.206L18.8778 20.7447L18.9753 20.295L15.5246 20.2657L21.0483 20.3113L33.7201 20.4221L44.1663 31.9839L44.0038 33.5448L43.9388 34.177L48.9946 39.7754L49.8588 39.5082L50.7134 41.408L51.9416 40.4304L52.0683 37.5855L53.0431 39.1921L53.1893 39.4332L54.6189 38.2894L54.3785 35.5098L55.5709 37.5269L56.8316 36.52L56.7926 33.6784L57.8031 35.7379L57.8291 35.7216L59.0541 34.744L58.8624 31.7721L60.11 33.8902L60.6852 33.4275L61.2473 32.981L61.2668 31.8992L61.3057 30.1101L62.4202 32.0393L63.4632 31.2051C62.5924 22.348 62.5274 17.3948 59.9313 8.23141C59.8679 8.01002 59.792 7.79242 59.7039 7.57968C58.336 4.27538 53.8554 0.922205 51.0286 2.6656L49.0953 3.86153L43.2955 7.44607L38.5809 10.3789L37.0083 11.3565L41.1413 8.09781L42.5319 7.00289L31.8421 0.531164L29.7983 2.26152L8.09049 0L7.76557 0.290022L6.8233 1.16661L5.67309 6.81063L5.48464 7.74913L0 10.8742L0.324919 12.8457L2.68383 14.3382L2.86254 29.6018L2.1932 30.8303C2.25494 33.3884 2.22245 35.4837 2.37191 38.0483C2.38016 38.318 2.45856 38.5809 2.59935 38.8108C2.84546 39.1584 3.21125 39.4022 3.6261 39.4951L4.09073 39.6353L5.67959 40.1208L5.58861 41.1603V41.3298C5.58861 41.4471 5.56911 41.5676 5.56262 41.6882C5.56262 41.6882 5.56262 41.8772 5.54637 42.0662C5.32543 48.8312 5.49113 55.9351 5.49113 55.9351C5.59836 59.259 5.66984 64.1828 5.49113 70.9935H10.6898C9.71508 64.3002 8.78257 59.4838 8.06449 56.2219C7.4975 53.8178 7.13875 51.369 6.99226 48.9029C6.86922 46.6201 6.93769 44.331 7.19696 42.0597L7.21321 41.8642L9.33818 18.5093L12.7141 20.4319L10.9758 39.3322C10.5404 44.0671 10.8555 49.949 13.3379 54.208L14.069 70.9837H17.2435C18.424 70.9837 19.6002 70.9772 20.7721 70.9641M36.7711 9.85097L34.3407 10.1768L26.9683 8.14669L26.5232 5.53975L26.8481 5.07701L27.4719 4.23628L36.7711 9.85097ZM12.7531 3.33362L13.078 1.29695L29.2427 2.72099L28.8561 3.04686L13.5491 1.70103L12.8278 3.29452L12.7238 3.52914L12.7531 3.33362ZM7.12873 1.70429L8.17822 0.537681L7.47314 1.93565L6.4204 7.82082H5.84855L7.12873 1.70429ZM6.47889 30.8629L5.75432 38.8792L5.73482 39.1008V38.8727L6.59586 16.8082L7.63235 17.46L6.47889 30.8629ZM33.1548 15.2213L32.3587 18.9296L11.918 18.3235L1.1892 11.7312L2.29393 11.2359L3.65534 10.6233L33.4114 14.0351L33.1548 15.2213ZM12.1682 8.09455L12.8376 4.29819L25.8571 5.60166L26.3542 8.63875L34.0645 10.8058L12.1682 8.09455ZM45.3912 34.1868L45.5764 31.7036L33.7624 18.6266L34.4934 16.3846L45.076 25.5969L34.8411 15.3158L35.9231 12.005C36.42 11.8825 36.9288 11.8147 37.4404 11.8029C44.3515 11.6661 47.5909 23.1203 48.8873 38.0743L45.3912 34.1868ZM52.5914 5.27579L43.9551 8.91899L52.5752 3.84198C54.4792 4.25909 56.6789 6.05136 57.449 7.94791C56.0096 6.45217 54.398 5.53975 52.5914 5.27579Z" fill="black"/>
<path d="M6.03699 11.741L33.0605 15.6677L33.1547 15.2245L33.2652 14.7097L6.03699 11.741Z" fill="black"/>
<path d="M185.516 34.4833H73.3375V36.1126H185.516V34.4833Z" fill="#DF9130"/>
</g>
<defs>
<clipPath id="clip0_807_8420">
<rect width="186" height="71" fill="white"/>
</clipPath>
</defs>
</svg>
