<svg width="186" height="71" viewBox="0 0 186 71" fill="none" xmlns="http://www.w3.org/2000/svg">
<g clip-path="url(#clip0_942_2122)">
<path d="M54.0698 49.9458V52.9535C54.0698 58.9647 51.0719 61.9714 45.076 61.9736H30.0875V70.9936H24.0928V40.9258H45.076C51.074 40.9258 54.072 43.9325 54.0698 49.9458ZM48.075 49.9458C48.075 47.9428 47.0754 46.9413 45.076 46.9413H30.0875V55.9613H45.076C47.0775 55.9613 48.0772 54.9587 48.075 52.9535V49.9458Z" fill="#E0E0E0"/>
<path d="M87.0459 70.9936H81.0511V64.9781H63.0636V70.9936H57.0688V49.444C57.0688 43.4328 60.0667 40.4272 66.0626 40.4272H78.0521C84.0501 40.4272 87.048 43.4328 87.0459 49.444V70.9936ZM81.0511 58.9821V49.444C81.0511 47.441 80.0514 46.4395 78.0521 46.4395H66.0626C64.0632 46.4395 63.0636 47.441 63.0636 49.444V58.9821H81.0511Z" fill="#E0E0E0"/>
<path d="M120.022 70.9936H114.027V58.9821H96.0396V71.0099H90.0449V40.9258H96.0396V52.9535H114.027V40.9258H120.022V70.9936Z" fill="#E0E0E0"/>
<path d="M152.998 70.9936H147.003V50.1381L129.016 70.9936H123.021V40.9258H129.016V61.7813L147.003 40.9258H152.998V70.9936Z" fill="#E0E0E0"/>
<path d="M185.974 46.9413H173.981V70.9936H167.983V46.9413H155.994V40.9258H185.971L185.974 46.9413Z" fill="#E0E0E0"/>
<path d="M81.9381 16.8246H75.9174C74.1845 16.8246 73.3245 15.9556 73.3375 14.2176V10.7863C73.3375 9.0483 74.1975 8.18584 75.9174 8.19888H81.9381V9.92272H75.9174C75.8004 9.9058 75.6811 9.91647 75.5689 9.95388C75.4567 9.9913 75.3548 10.0544 75.2712 10.1382C75.1877 10.2221 75.1247 10.3243 75.0874 10.4368C75.0501 10.5493 75.0395 10.6689 75.0563 10.7863V14.2339C75.0395 14.3513 75.0501 14.4709 75.0874 14.5834C75.1247 14.6959 75.1877 14.7981 75.2712 14.882C75.3548 14.9658 75.4567 15.0289 75.5689 15.0663C75.6811 15.1037 75.8004 15.1144 75.9174 15.0975H81.9381V16.8246Z" fill="#E0E0E0"/>
<path d="M91.3965 9.92257H87.9556V16.8244H86.2368V9.92257H82.7959V8.19873H91.3965V9.92257Z" fill="#E0E0E0"/>
<path d="M100.858 10.7861V11.6464C100.858 13.3735 99.9982 14.236 98.2783 14.2338H93.9764V16.8407H92.2576V8.19873H98.2783C99.9961 8.19873 100.856 9.06119 100.858 10.7861ZM99.1361 10.7861C99.1528 10.6691 99.1422 10.5498 99.1051 10.4376C99.068 10.3254 99.0053 10.2234 98.9221 10.1396C98.8389 10.0558 98.7375 9.99264 98.6257 9.95497C98.514 9.91731 98.3951 9.90621 98.2783 9.92257H93.9764V12.51H98.2783C98.3951 12.5263 98.514 12.5152 98.6257 12.4776C98.7375 12.4399 98.8389 12.3767 98.9221 12.2929C99.0053 12.2092 99.068 12.1072 99.1051 11.995C99.1422 11.8828 99.1528 11.7634 99.1361 11.6464V10.7861Z" fill="#E0E0E0"/>
<path d="M110.317 14.3806C110.317 16.1033 109.457 16.9658 107.737 16.968H104.299C102.579 16.968 101.719 16.1055 101.719 14.3806V10.6429C101.719 8.9158 102.579 8.05225 104.299 8.05225H107.74C109.462 8.05225 110.322 8.9158 110.32 10.6429L110.317 14.3806ZM108.598 14.3806V10.6429C108.615 10.5253 108.605 10.4053 108.568 10.2924C108.531 10.1794 108.468 10.0768 108.384 9.99257C108.301 9.90835 108.199 9.84492 108.086 9.80733C107.974 9.76974 107.854 9.75904 107.737 9.77609H104.299C104.182 9.75973 104.063 9.77082 103.952 9.80849C103.84 9.84615 103.738 9.90936 103.655 9.99311C103.572 10.0769 103.509 10.1789 103.472 10.2911C103.435 10.4033 103.425 10.5226 103.441 10.6396V14.3806C103.424 14.4975 103.435 14.6167 103.472 14.7288C103.509 14.8409 103.572 14.9428 103.655 15.0263C103.738 15.1099 103.84 15.1728 103.952 15.21C104.064 15.2472 104.183 15.2578 104.299 15.2409H107.74C107.856 15.2571 107.975 15.2461 108.086 15.2086C108.198 15.1711 108.299 15.1082 108.382 15.0248C108.465 14.9414 108.528 14.8399 108.566 14.7281C108.603 14.6163 108.614 14.4974 108.598 14.3806Z" fill="#E0E0E0"/>
<path d="M119.778 16.8244H118.059V10.8415L112.896 16.8244H111.178V8.19873H112.896V14.1784L118.059 8.19873H119.778V16.8244Z" fill="#E0E0E0"/>
<path d="M129.237 9.92257H125.799V16.8244H124.077V9.92257H120.639V8.19873H129.237V9.92257Z" fill="#E0E0E0"/>
<path d="M138.698 9.92257H131.82V11.6464H136.979V13.3605H131.82V15.0843H138.698V16.8114H130.098V8.19873H138.698V9.92257Z" fill="#E0E0E0"/>
<path d="M148.163 16.8246H146.441V9.92272H143.861C143.442 9.92272 143.156 10.2095 143.003 10.7863L141.307 16.8246H139.559C140.619 13.3726 141.191 11.3598 141.278 10.7863C141.785 9.0483 142.645 8.18584 143.858 8.19888H148.163V16.8246Z" fill="#E0E0E0"/>
<path d="M155.038 16.8244H149.018V8.19873H150.74V10.7861H155.038C156.761 10.7861 157.62 11.6486 157.618 13.3735V14.2338C157.618 15.9609 156.758 16.8244 155.038 16.8244ZM155.899 13.3605C155.916 13.2431 155.906 13.1235 155.868 13.011C155.831 12.8985 155.768 12.7963 155.685 12.7125C155.601 12.6286 155.499 12.5655 155.387 12.5281C155.275 12.4907 155.155 12.48 155.038 12.4969H150.74V15.0843H155.038C155.155 15.1012 155.275 15.0906 155.387 15.0531C155.499 15.0157 155.601 14.9526 155.685 14.8688C155.768 14.7849 155.831 14.6827 155.868 14.5702C155.906 14.4578 155.916 14.3381 155.899 14.2208V13.3605Z" fill="#E0E0E0"/>
<path d="M167.08 16.8244H165.358V13.3605H160.185V16.8244H158.466V8.19873H160.185V11.6464H165.345V8.19873H167.067L167.08 16.8244Z" fill="#E0E0E0"/>
<path d="M176.542 16.8246H174.807V15.0975H169.66V16.8246H167.941V10.6331C167.941 8.90603 168.801 8.04248 170.521 8.04248H173.959C175.691 8.04248 176.558 8.90603 176.558 10.6331L176.542 16.8246ZM174.807 13.3606V10.6429C174.824 10.5266 174.813 10.4078 174.777 10.2961C174.741 10.1843 174.679 10.0824 174.597 9.99851C174.515 9.91458 174.414 9.85083 174.304 9.81225C174.193 9.77366 174.075 9.76129 173.959 9.7761H170.521C170.404 9.75918 170.285 9.76985 170.172 9.80726C170.06 9.84468 169.958 9.9078 169.875 9.99163C169.791 10.0755 169.728 10.1777 169.691 10.2902C169.654 10.4026 169.643 10.5223 169.66 10.6396V13.3606H174.807Z" fill="#E0E0E0"/>
<path d="M179.979 8.19873H186V16.8244H184.281V14.2175H182.416L179.836 16.8244H177.406L179.986 14.2175C178.268 14.2175 177.408 13.355 177.406 11.6301V10.7861C177.406 9.05902 178.264 8.19656 179.979 8.19873ZM179.118 11.6464C179.101 11.7637 179.112 11.8834 179.149 11.9959C179.187 12.1084 179.25 12.2106 179.333 12.2944C179.417 12.3783 179.519 12.4414 179.631 12.4788C179.743 12.5162 179.862 12.5269 179.979 12.51H184.281V9.92257H179.979C179.862 9.90566 179.743 9.91633 179.631 9.95374C179.519 9.99116 179.417 10.0543 179.333 10.1381C179.25 10.2219 179.187 10.3241 179.149 10.4366C179.112 10.5491 179.101 10.6688 179.118 10.7861V11.6464Z" fill="#E0E0E0"/>
<path d="M81.9381 29.4582H79.7449L77.0058 26.0106H75.0563V29.4582H73.3375V20.8325H75.0563V24.2835H77.0058L79.7579 20.8325H81.9511L78.4972 25.147L81.9381 29.4582Z" fill="#E0E0E0"/>
<path d="M90.9774 27.0145C90.9774 28.7416 90.1174 29.6041 88.3975 29.6019H84.9469C83.227 29.6019 82.367 28.7395 82.367 27.0145V23.2768C82.367 21.5519 83.227 20.6895 84.9469 20.6895H88.378C90.0979 20.6895 90.9579 21.5519 90.9579 23.2768L90.9774 27.0145ZM89.2553 27.0145V23.2768C89.273 23.158 89.2623 23.0367 89.2241 22.9229C89.186 22.809 89.1214 22.7059 89.0358 22.6219C88.9502 22.5379 88.8459 22.4755 88.7316 22.4398C88.6172 22.4041 88.496 22.3962 88.378 22.4166H84.9469C84.8302 22.3998 84.7112 22.4104 84.5993 22.4476C84.4875 22.4849 84.3857 22.5477 84.3022 22.6311C84.2187 22.7146 84.1557 22.8163 84.1182 22.9284C84.0806 23.0405 84.0695 23.1598 84.0858 23.2768V27.0145C84.069 27.1319 84.0796 27.2515 84.1169 27.364C84.1542 27.4765 84.2172 27.5787 84.3007 27.6626C84.3843 27.7464 84.4862 27.8095 84.5984 27.8469C84.7106 27.8843 84.8299 27.895 84.9469 27.8781H88.378C88.4955 27.8961 88.6156 27.8863 88.7286 27.8494C88.8416 27.8125 88.9444 27.7495 89.0288 27.6656C89.1131 27.5816 89.1767 27.479 89.2143 27.3659C89.252 27.2528 89.2627 27.1325 89.2456 27.0145H89.2553Z" fill="#E0E0E0"/>
<path d="M102.148 29.4582H100.426V24.0553L96.9884 29.4582L93.5475 24.0553V29.4582H91.8254V20.8325H93.5475L96.9884 26.2387L100.426 20.8325H102.148V29.4582Z" fill="#E0E0E0"/>
<path d="M111.606 29.4582H109.888V22.5596H104.728V29.4582H102.999V20.8325H111.6L111.606 29.4582Z" fill="#E0E0E0"/>
<path d="M121.068 29.4586H119.349V27.7347H114.186V29.4586H112.468V23.2671C112.468 21.5422 113.327 20.6797 115.047 20.6797H118.488C120.206 20.6797 121.066 21.5422 121.068 23.2671V29.4586ZM119.349 26.0109V23.2769C119.366 23.1598 119.355 23.0405 119.317 22.9284C119.279 22.8164 119.216 22.7146 119.133 22.6311C119.049 22.5477 118.948 22.4849 118.836 22.4476C118.724 22.4104 118.605 22.3998 118.488 22.4166H115.047C114.931 22.3998 114.812 22.4104 114.7 22.4476C114.588 22.4849 114.486 22.5477 114.403 22.6311C114.319 22.7146 114.256 22.8164 114.219 22.9284C114.181 23.0405 114.17 23.1598 114.186 23.2769V26.0109H119.349Z" fill="#E0E0E0"/>
<path d="M130.53 29.4582H128.808V26.0106H123.648V29.4582H121.929V20.8325H123.648V24.2835H128.808V20.8325H130.53V29.4582Z" fill="#E0E0E0"/>
<path d="M139.988 29.4582H138.269V23.4786L133.11 29.4582H131.388V20.8325H133.11V26.8154L138.269 20.8325H139.988V29.4582Z" fill="#E0E0E0"/>
<path d="M143.429 20.8325H149.463V29.4582H147.741V26.8708H145.879L143.289 29.4582H140.852L143.432 26.8708C141.71 26.8708 140.85 26.0084 140.852 24.2835V23.4199C140.85 21.695 141.709 20.8325 143.429 20.8325ZM142.568 24.2835C142.551 24.4008 142.562 24.5205 142.599 24.6329C142.636 24.7454 142.699 24.8476 142.783 24.9315C142.867 25.0153 142.968 25.0784 143.081 25.1158C143.193 25.1533 143.312 25.1639 143.429 25.147H147.728V22.5596H143.429C143.312 22.5428 143.193 22.5535 143.082 22.5907C142.97 22.6279 142.868 22.6908 142.784 22.7742C142.701 22.8576 142.638 22.9594 142.6 23.0715C142.563 23.1835 142.552 23.3028 142.568 23.4199V24.2835Z" fill="#E0E0E0"/>
<path d="M26.3542 8.6226L25.8571 5.58552L12.8376 4.29834L12.1682 8.0947L34.0645 10.7896L26.3542 8.6226Z" fill="#DF9130"/>
<path d="M36.7711 9.85079L26.8578 5.07031L26.5232 5.53304L26.9683 8.13347L34.3407 10.1832L36.7711 9.85079Z" fill="#DF9130"/>
<path d="M35.9231 12.0049L34.8411 15.3157L45.076 25.5968L34.4934 16.3845L33.7624 18.6265L45.5764 31.7036L45.3912 34.1867L48.8874 38.0743C47.7631 27.816 43.4904 17.7304 41.5897 15.1658C39.6889 12.6012 35.9231 12.0049 35.9231 12.0049Z" fill="#DF9130"/>
<path d="M52.5752 3.8418L43.9551 8.91881L52.5914 5.27561C54.398 5.54283 56.0096 6.45199 57.4457 7.94773C56.6789 6.05118 54.4792 4.25891 52.5752 3.8418Z" fill="#DF9130"/>
<path d="M33.1548 15.2246L33.0605 15.6678L6.037 11.7411L2.29393 11.2393L1.18921 11.7346L11.918 18.3236L32.3587 18.9297L33.1548 15.2246Z" fill="#DF9130"/>
<path d="M11.0992 70.9348C11.5119 70.9609 11.944 70.9837 12.3989 70.9935C12.8538 71.0033 13.3022 70.9935 13.7246 70.9935C13.4495 65.4298 13.1722 59.8673 12.8928 54.3058C10.5707 49.683 9.89753 44.402 10.9855 39.342L12.7238 20.4417L9.33818 18.5093L7.18396 41.8675C7.11938 44.1763 7.18121 46.4869 7.36917 48.7889C7.48773 50.4583 7.6938 52.1204 7.98651 53.7681C8.2562 55.2476 8.42515 55.7462 8.91253 58.1119C9.23745 59.6435 9.4259 60.7384 9.67609 62.1494C10.053 64.2154 10.5566 67.1874 11.0992 70.9348Z" fill="#DF9130"/>
<path d="M20.0963 20.9144L18.8746 20.7417L18.1922 49.203L20.0963 20.9144Z" fill="#DF9130"/>
<path d="M21.0483 20.3081L20.145 20.3015C19.4951 29.9342 18.8453 39.569 18.1955 49.206L18.8778 20.7447L18.9753 20.295L15.5246 20.2657L21.0483 20.3113L33.7201 20.4221L44.1663 31.9839L44.0038 33.5448L43.9388 34.177L48.9946 39.7754L49.8588 39.5082L50.7134 41.408L51.9416 40.4304L52.0683 37.5855L53.0431 39.1921L53.1893 39.4332L54.6189 38.2894L54.3785 35.5098L55.5709 37.5269L56.8316 36.52L56.7926 33.6784L57.8031 35.7379L57.8291 35.7216L59.0541 34.744L58.8624 31.7721L60.11 33.8902L60.6852 33.4275L61.2473 32.981L61.2668 31.8992L61.3057 30.1101L62.4202 32.0393L63.4632 31.2051C62.5924 22.348 62.5274 17.3948 59.9313 8.23141C59.8679 8.01002 59.792 7.79242 59.7039 7.57968C58.336 4.27538 53.8554 0.922205 51.0286 2.6656L49.0953 3.86153L43.2955 7.44607L38.5809 10.3789L37.0083 11.3565L41.1413 8.09781L42.5319 7.00289L31.8421 0.531164L29.7983 2.26152L8.09049 0L7.76557 0.290022L6.8233 1.16661L5.67309 6.81063L5.48464 7.74913L0 10.8742L0.324919 12.8457L2.68383 14.3382L2.86254 29.6018L2.1932 30.8303C2.25494 33.3884 2.22245 35.4837 2.37191 38.0483C2.38016 38.318 2.45856 38.5809 2.59935 38.8108C2.84546 39.1584 3.21125 39.4022 3.6261 39.4951L4.09073 39.6353L5.67959 40.1208L5.58861 41.1603V41.3298C5.58861 41.4471 5.56911 41.5676 5.56262 41.6882C5.56262 41.6882 5.56262 41.8772 5.54637 42.0662C5.32543 48.8312 5.49113 55.9351 5.49113 55.9351C5.59836 59.259 5.66984 64.1828 5.49113 70.9935H10.6898C9.71508 64.3002 8.78257 59.4838 8.06449 56.2219C7.4975 53.8178 7.13875 51.369 6.99226 48.9029C6.86922 46.6201 6.93769 44.331 7.19696 42.0597L7.21321 41.8642L9.33818 18.5093L12.7141 20.4319L10.9758 39.3322C10.5404 44.0671 10.8555 49.949 13.3379 54.208L14.069 70.9837H17.2435C18.424 70.9837 19.6002 70.9772 20.7721 70.9641M36.7711 9.85097L34.3407 10.1768L26.9683 8.14669L26.5232 5.53975L26.8481 5.07701L27.4719 4.23628L36.7711 9.85097ZM12.7531 3.33362L13.078 1.29695L29.2427 2.72099L28.8561 3.04686L13.5491 1.70103L12.8278 3.29452L12.7238 3.52914L12.7531 3.33362ZM7.12873 1.70429L8.17822 0.537681L7.47314 1.93565L6.4204 7.82082H5.84855L7.12873 1.70429ZM6.47889 30.8629L5.75432 38.8792L5.73482 39.1008V38.8727L6.59586 16.8082L7.63235 17.46L6.47889 30.8629ZM33.1548 15.2213L32.3587 18.9296L11.918 18.3235L1.1892 11.7312L2.29393 11.2359L3.65534 10.6233L33.4114 14.0351L33.1548 15.2213ZM12.1682 8.09455L12.8376 4.29819L25.8571 5.60166L26.3542 8.63875L34.0645 10.8058L12.1682 8.09455ZM45.3912 34.1868L45.5764 31.7036L33.7624 18.6266L34.4934 16.3846L45.076 25.5969L34.8411 15.3158L35.9231 12.005C36.42 11.8825 36.9288 11.8147 37.4404 11.8029C44.3515 11.6661 47.5909 23.1203 48.8873 38.0743L45.3912 34.1868ZM52.5914 5.27579L43.9551 8.91899L52.5752 3.84198C54.4792 4.25909 56.6789 6.05136 57.449 7.94791C56.0096 6.45217 54.398 5.53975 52.5914 5.27579Z" fill="#E0E0E0"/>
<path d="M6.037 11.7412L33.0605 15.6679L33.1548 15.2247L33.2652 14.7099L6.037 11.7412Z" fill="black"/>
<path d="M185.516 34.4834H73.3375V36.1127H185.516V34.4834Z" fill="#DF9130"/>
</g>
<defs>
<clipPath id="clip0_942_2122">
<rect width="186" height="71" fill="white"/>
</clipPath>
</defs>
</svg>
