<svg width="143" height="143" viewBox="0 0 143 143" fill="none" xmlns="http://www.w3.org/2000/svg">
<circle cx="71.5" cy="71.5" r="70.5" transform="rotate(120 71.5 71.5)" fill="#DF9130"/>
<path d="M41.5008 112.469L42.8567 113.477L42.1401 114.441L40.8391 113.474C40.2643 113.046 39.7391 112.782 39.2634 112.68C38.7877 112.577 38.362 112.61 37.9865 112.777C37.6109 112.944 37.2832 113.215 37.0036 113.592C36.7356 113.952 36.5797 114.347 36.536 114.777C36.4884 115.212 36.584 115.657 36.8229 116.11C37.058 116.569 37.4681 117.015 38.0533 117.45C38.4922 117.777 38.9514 117.988 39.431 118.085C39.9067 118.187 40.3578 118.17 40.7843 118.033C41.2069 117.901 41.5581 117.646 41.8377 117.27L43.3503 118.395C42.9891 118.881 42.5629 119.241 42.0718 119.476C41.5767 119.717 41.0505 119.841 40.4932 119.848C39.9321 119.861 39.3646 119.768 38.7909 119.568C38.2119 119.365 37.6611 119.069 37.1386 118.681C36.5273 118.226 36.0259 117.744 35.6344 117.234C35.239 116.729 34.9646 116.209 34.8113 115.673C34.658 115.137 34.6368 114.598 34.7478 114.056C34.8587 113.514 35.1123 112.977 35.5084 112.444C35.7997 112.052 36.165 111.751 36.6042 111.543C37.0434 111.334 37.53 111.225 38.0638 111.216C38.5976 111.207 39.1586 111.304 39.7467 111.506C40.3309 111.713 40.9156 112.034 41.5008 112.469ZM42.3615 114.143L41.0056 113.135C40.3629 112.657 39.8393 112.167 39.4348 111.663C39.0303 111.16 38.7489 110.654 38.5905 110.147C38.432 109.64 38.4019 109.135 38.5 108.632C38.589 108.13 38.8102 107.642 39.1637 107.166C39.5598 106.633 40.0158 106.238 40.5317 105.981C41.0423 105.719 41.5925 105.585 42.1823 105.577C42.7721 105.569 43.38 105.685 44.0061 105.923C44.6269 106.157 45.2429 106.502 45.8542 106.956C46.3454 107.321 46.7847 107.745 47.1722 108.228C47.5506 108.712 47.834 109.231 48.0226 109.785C48.2073 110.344 48.2618 110.92 48.1862 111.513C48.1054 112.101 47.8475 112.688 47.4125 113.274L45.8999 112.149C46.1834 111.768 46.3391 111.34 46.367 110.866C46.3897 110.388 46.2848 109.913 46.0524 109.44C45.816 108.972 45.447 108.552 44.9454 108.179C44.3706 107.751 43.8187 107.479 43.2895 107.362C42.7513 107.245 42.2611 107.266 41.8191 107.424C41.3679 107.584 40.9948 107.862 40.6996 108.259C40.4394 108.609 40.2716 108.955 40.1962 109.297C40.1117 109.639 40.1171 109.976 40.2122 110.306C40.3022 110.633 40.48 110.956 40.7457 111.275C41.0023 111.595 41.3422 111.913 41.7654 112.227L43.0664 113.195L42.3615 114.143Z" fill="#34383D"/>
<path d="M27.4173 107.361L40.4671 102.911L41.6723 104.411L27.194 109.094L26.417 108.127L27.4173 107.361ZM35.0469 96.1672L27.9006 107.962L26.937 108.774L26.1601 107.807L33.8356 94.66L35.0469 96.1672ZM31.097 99.6549L32.2997 98.6883L37.3039 104.915L36.1012 105.882L31.097 99.6549Z" fill="#34383D"/>
<path d="M19.4958 97.404L32.5305 91.7232L33.2835 93.451L20.2488 99.1318L19.4958 97.404ZM15.9961 89.3738L25.6327 91.9064L26.9671 94.9681L25.6518 95.861L24.649 93.5602L16.9286 91.5134L15.9961 89.3738ZM29.7876 85.4297L25.8342 92.9798L23.8999 92.6723L28.8668 83.317L29.7876 85.4297Z" fill="#34383D"/>
<path d="M15.3491 79.7819L28.8635 82.5121L29.1492 84.4146L14.2832 81.1665L14.099 79.94L15.3491 79.7819ZM27.5785 73.9558L15.4637 80.5448L14.2223 80.7609L14.0381 79.5344L27.2913 72.0436L27.5785 73.9558ZM22.4094 74.9789L23.9353 74.7498L25.1217 82.6495L23.5958 82.8786L22.4094 74.9789Z" fill="#34383D"/>
<path d="M21.152 65.7022L20.969 67.3817L19.7749 67.2516L19.9505 65.64C20.028 64.9281 19.9905 64.3412 19.8378 63.8792C19.6851 63.4172 19.4417 63.0665 19.1076 62.8271C18.7735 62.5877 18.3735 62.4426 17.9075 62.3918C17.4609 62.3432 17.0412 62.4088 16.6483 62.5886C16.2489 62.7678 15.9142 63.0751 15.6441 63.5107C15.3675 63.9455 15.1897 64.5254 15.1107 65.2502C15.0515 65.7939 15.1014 66.2971 15.2606 66.7597C15.4133 67.2217 15.6567 67.6019 15.991 67.9002C16.3187 68.1979 16.7156 68.3721 17.1816 68.4229L16.9774 70.2966C16.3755 70.231 15.8489 70.0459 15.3974 69.7413C14.9395 69.436 14.5663 69.045 14.2777 68.5682C13.9826 68.0907 13.7758 67.5541 13.6574 66.9583C13.5396 66.3561 13.516 65.7314 13.5865 65.0842C13.669 64.3269 13.8312 63.6504 14.0729 63.0546C14.3082 62.4581 14.618 61.9581 15.0025 61.5547C15.3871 61.1512 15.8412 60.8602 16.3649 60.6815C16.8887 60.5028 17.4806 60.4494 18.1408 60.5213C18.6262 60.5742 19.0701 60.7372 19.4726 61.0103C19.8751 61.2833 20.2152 61.6478 20.493 62.1038C20.7707 62.5597 20.9714 63.0924 21.0949 63.7018C21.2119 64.3105 21.231 64.9773 21.152 65.7022ZM20.1438 67.2918L20.3268 65.6123C20.4135 64.8162 20.5717 64.1163 20.8012 63.5126C21.0307 62.9089 21.324 62.4104 21.6812 62.0171C22.0384 61.6238 22.4588 61.3422 22.9423 61.1722C23.42 60.995 23.9533 60.9385 24.5423 61.0027C25.2024 61.0746 25.7741 61.2679 26.2572 61.5825C26.741 61.8906 27.1354 62.2971 27.4406 62.8018C27.7458 63.3066 27.9541 63.8892 28.0655 64.5497C28.1777 65.2037 28.1925 65.9094 28.1099 66.6666C28.0437 67.275 27.9004 67.8684 27.6802 68.4469C27.4542 69.0183 27.1501 69.5254 26.7679 69.9684C26.3791 70.4107 25.91 70.7492 25.3605 70.984C24.8117 71.2124 24.1749 71.2871 23.45 71.2081L23.6541 69.3344C24.1266 69.3859 24.5743 69.3037 24.9973 69.0878C25.4211 68.8655 25.778 68.5344 26.0683 68.0945C26.352 67.6539 26.5278 67.1229 26.5955 66.5016C26.673 65.7897 26.6286 65.1758 26.4621 64.6599C26.2899 64.1369 26.0237 63.7248 25.6636 63.4236C25.2977 63.1152 24.8689 62.9342 24.377 62.8806C23.9433 62.8334 23.5602 62.8637 23.2276 62.9715C22.8891 63.0721 22.6016 63.2471 22.3648 63.4964C22.1288 63.7392 21.9404 64.0559 21.7996 64.4466C21.653 64.8301 21.5512 65.284 21.4941 65.8082L21.3185 67.4198L20.1438 67.2918Z" fill="#34383D"/>
<path d="M18.452 50.9362L28.905 59.9267L28.2238 61.7259L16.8451 51.6227L17.2843 50.4628L18.452 50.9362ZM31.9684 51.8348L18.1789 51.6577L16.9904 51.2391L17.4295 50.0792L32.6531 50.0265L31.9684 51.8348ZM26.9593 50.1995L28.4023 50.7458L25.574 58.2166L24.1309 57.6703L26.9593 50.1995Z" fill="#34383D"/>
<path d="M25.0099 36.3293L36.5823 44.5909L35.5042 46.101L23.9319 37.8394L25.0099 36.3293ZM27.6654 32.6096L28.9212 33.5061L22.5378 42.4477L21.282 41.5512L27.6654 32.6096Z" fill="#34383D"/>
<path d="M35.3222 33.1604L38.2793 30.6532C39.0738 29.9795 39.8579 29.5452 40.6315 29.3502C41.4009 29.1503 42.1292 29.1687 42.8164 29.4054C43.5036 29.6421 44.1188 30.0808 44.662 30.7214C45.0661 31.1981 45.3572 31.7024 45.5351 32.2344C45.7088 32.7615 45.7635 33.3041 45.699 33.8623C45.6304 34.4156 45.435 34.9653 45.1129 35.5116C44.7866 36.0529 44.3254 36.5761 43.7296 37.0814L39.6775 40.517L30.4822 29.6718L31.9198 28.4529L40.1235 38.1287L42.738 35.9119C43.2694 35.4614 43.6168 35.0004 43.7803 34.5289C43.9446 34.0481 43.969 33.5836 43.8535 33.1353C43.738 32.687 43.5265 32.2815 43.2192 31.919C42.9118 31.5565 42.5528 31.2891 42.142 31.1167C41.7312 30.9443 41.2837 30.9098 40.7994 31.0131C40.3159 31.1073 39.8085 31.3796 39.2771 31.8301L36.32 34.3373L35.3222 33.1604Z" fill="#34383D"/>
<path d="M55.05 22.9338L53.4582 23.5L53.0557 22.3683L54.583 21.825C55.2577 21.585 55.7698 21.2957 56.1193 20.9572C56.4688 20.6187 56.6786 20.2469 56.7487 19.8419C56.8188 19.4369 56.7754 19.0136 56.6183 18.5719C56.4677 18.1487 56.226 17.7994 55.893 17.5239C55.5579 17.2423 55.1355 17.0747 54.6258 17.0211C54.114 16.9613 53.5145 17.0537 52.8275 17.298C52.3123 17.4813 51.881 17.7453 51.5337 18.09C51.1843 18.4285 50.948 18.8131 50.8248 19.2439C50.6995 19.6686 50.7153 20.1017 50.8724 20.5433L49.0967 21.175C48.8938 20.6046 48.8312 20.0498 48.9089 19.5108C48.9845 18.9657 49.1741 18.4595 49.4777 17.9921C49.7792 17.5187 50.1723 17.0989 50.6572 16.733C51.1481 16.3649 51.7003 16.0717 52.3137 15.8535C53.0313 15.5982 53.711 15.4497 54.3526 15.4081C54.9921 15.3603 55.5771 15.4216 56.1076 15.5922C56.6382 15.7628 57.0979 16.045 57.4867 16.4387C57.8756 16.8325 58.1813 17.3422 58.4038 17.9679C58.5675 18.4279 58.614 18.8985 58.5433 19.3797C58.4726 19.8609 58.2925 20.3258 58.0029 20.7743C57.7133 21.2229 57.321 21.6353 56.8261 22.0118C56.329 22.3821 55.737 22.6894 55.05 22.9338ZM53.18 22.718L54.7718 22.1517C55.5263 21.8834 56.2252 21.7211 56.8686 21.665C57.512 21.6089 58.0885 21.656 58.5981 21.8064C59.1076 21.9568 59.5441 22.2127 59.9076 22.574C60.275 22.927 60.558 23.3826 60.7566 23.9408C60.9792 24.5665 61.0539 25.1652 60.981 25.7371C60.9141 26.3067 60.7199 26.8388 60.3983 27.3333C60.0766 27.8277 59.6427 28.2689 59.0966 28.6566C58.5566 29.0422 57.9277 29.3626 57.21 29.6179C56.6335 29.823 56.0368 29.9524 55.4201 30.0059C54.8074 30.0511 54.2184 29.998 53.6533 29.8467C53.0859 29.6892 52.5769 29.4142 52.1263 29.0216C51.6819 28.6269 51.3375 28.0861 51.0931 27.3991L52.8688 26.7674C53.0281 27.2152 53.297 27.5825 53.6755 27.8694C54.06 28.1541 54.5135 28.3314 55.0359 28.4012C55.5561 28.465 56.1106 28.3921 56.6995 28.1826C57.3742 27.9426 57.9075 27.6354 58.2995 27.261C58.6955 26.8783 58.9507 26.4593 59.0651 26.004C59.1835 25.5404 59.1598 25.0755 58.9939 24.6093C58.8477 24.1983 58.6537 23.8666 58.4118 23.614C58.1739 23.3531 57.8913 23.1704 57.5638 23.0657C57.2425 22.9589 56.8753 22.9271 56.4623 22.9704C56.0532 23.0054 55.6003 23.1112 55.1034 23.288L53.5761 23.8313L53.18 22.718Z" fill="#34383D"/>
<path d="M67.509 20.3757L63.9228 20.7282L63.7553 19.2237L67.0111 18.9037C67.5488 18.8508 68.0097 18.7139 68.3935 18.493C68.7774 18.2721 69.0629 17.9824 69.2501 17.6238C69.4431 17.2581 69.5164 16.8388 69.4699 16.3658C69.4189 15.8474 69.2771 15.4362 69.0444 15.132C68.8175 14.8206 68.4927 14.6105 68.0699 14.5016C67.6529 14.3856 67.1334 14.3582 66.5114 14.4193L63.7512 14.6906L64.9913 27.3056L63.1156 27.49L61.7246 13.3395L66.3604 12.8837C67.0861 12.8124 67.7413 12.8232 68.3261 12.9162C68.9103 13.0027 69.4153 13.182 69.8411 13.4542C70.2728 13.7192 70.6155 14.078 70.8693 14.5306C71.1232 14.9832 71.2826 15.54 71.3475 16.2008C71.4048 16.784 71.3077 17.3267 71.0562 17.8289C70.804 18.3247 70.4269 18.7478 69.9249 19.098C69.4294 19.4477 68.8327 19.6993 68.1347 19.853L67.509 20.3757ZM68.0722 27.0028L63.8348 27.4193L64.7441 25.7893L67.9222 25.4769C68.5182 25.4183 69.0134 25.265 69.4077 25.0169C69.8085 24.7681 70.1005 24.4451 70.2839 24.0476C70.4666 23.6437 70.5325 23.1825 70.4815 22.6642C70.4299 22.1394 70.2914 21.6951 70.0659 21.3313C69.8405 20.9675 69.5167 20.7017 69.0946 20.5338C68.6725 20.366 68.144 20.3133 67.509 20.3757L64.8363 20.6384L64.7077 19.1301L68.362 18.7709L68.8139 19.2759C69.5 19.2674 70.0957 19.4051 70.6012 19.689C71.106 19.9665 71.5064 20.3458 71.8023 20.827C72.1046 21.3075 72.2858 21.8523 72.3456 22.4613C72.4323 23.3425 72.3111 24.1067 71.9822 24.754C71.6592 25.3941 71.1634 25.9073 70.4949 26.2936C69.8257 26.6734 69.0181 26.9098 68.0722 27.0028Z" fill="#34383D"/>
<path d="M86.4585 20.9243L86.308 21.81C86.129 22.8626 85.8371 23.7838 85.4321 24.5734C85.0271 25.3631 84.5278 26.0079 83.9343 26.508C83.3408 27.008 82.6713 27.3532 81.9257 27.5434C81.1866 27.7347 80.3902 27.7579 79.5366 27.6127C78.7086 27.472 77.9742 27.1887 77.3334 26.7627C76.699 26.3379 76.178 25.7904 75.7702 25.1201C75.3689 24.4509 75.1011 23.6757 74.967 22.7944C74.8328 21.9131 74.8552 20.9461 75.0342 19.8935L75.1847 19.0078C75.3637 17.9552 75.6583 17.0378 76.0686 16.2557C76.4864 15.4682 76.9953 14.825 77.5952 14.326C78.1962 13.8206 78.8663 13.4723 79.6055 13.281C80.351 13.0907 81.1378 13.066 81.9657 13.2067C82.8194 13.3518 83.5634 13.6368 84.1978 14.0616C84.8386 14.4875 85.3559 15.0378 85.7497 15.7123C86.1511 16.3814 86.4124 17.1556 86.5337 18.0347C86.6625 18.9085 86.6375 19.8717 86.4585 20.9243ZM84.4691 21.4974L84.623 20.5924C84.7648 19.7581 84.8036 19.0052 84.7394 18.3339C84.6817 17.6637 84.5262 17.0826 84.2731 16.5905C84.0199 16.0984 83.675 15.6997 83.2382 15.3943C82.8079 15.09 82.2942 14.8871 81.6973 14.7856C81.1197 14.6874 80.5775 14.7108 80.0708 14.8558C79.5705 15.0019 79.1163 15.2648 78.7084 15.6445C78.3068 16.0253 77.9617 16.5214 77.6728 17.1326C77.384 17.7439 77.1687 18.4668 77.0269 19.3011L76.873 20.2061C76.7301 21.0469 76.6934 21.8067 76.7629 22.4855C76.8335 23.1579 76.998 23.7439 77.2565 24.2435C77.5225 24.7378 77.8674 25.1365 78.2914 25.4397C78.7217 25.744 79.2257 25.9453 79.8034 26.0435C80.4067 26.146 80.9617 26.1248 81.4684 25.9798C81.9752 25.8348 82.4261 25.5714 82.8212 25.1895C83.2238 24.8023 83.5631 24.3019 83.8391 23.6885C84.1162 23.0686 84.3262 22.3382 84.4691 21.4974Z" fill="#34383D"/>
<path d="M98.3077 25.529L97.6351 26.9068L90.7198 23.5308L91.3924 22.153L98.3077 25.529ZM94.3376 16.788L88.0998 29.5654L86.4061 28.7385L92.6439 15.9611L94.3376 16.788ZM102.464 20.7552L96.2261 33.5326L94.5411 32.71L100.779 19.9326L102.464 20.7552Z" fill="#34383D"/>
<path d="M111.4 36.6063L110.795 37.2705C110.076 38.0599 109.333 38.6775 108.565 39.1234C107.798 39.5694 107.03 39.8426 106.26 39.943C105.491 40.0434 104.741 39.9724 104.01 39.7299C103.285 39.4918 102.602 39.0812 101.962 38.4982C101.341 37.9326 100.876 37.2976 100.567 36.5931C100.262 35.893 100.119 35.1507 100.138 34.3664C100.162 33.5865 100.355 32.7894 100.718 31.9752C101.081 31.161 101.622 30.3592 102.341 29.5698L102.946 28.9057C103.665 28.1163 104.408 27.5033 105.176 27.0665C105.953 26.6293 106.728 26.3627 107.503 26.2667C108.281 26.1659 109.033 26.2345 109.759 26.4726C110.489 26.715 111.165 27.119 111.786 27.6846C112.426 28.2677 112.898 28.9093 113.203 29.6094C113.512 30.3139 113.65 31.0563 113.618 31.8367C113.594 32.6167 113.396 33.4094 113.023 34.2148C112.66 35.0198 112.119 35.817 111.4 36.6063ZM109.416 36.0145L110.034 35.3358C110.604 34.7101 111.043 34.0975 111.352 33.4978C111.665 32.9025 111.848 32.3294 111.9 31.7785C111.953 31.2277 111.878 30.7058 111.675 30.2129C111.477 29.7244 111.155 29.2763 110.707 28.8686C110.274 28.474 109.805 28.2009 109.3 28.0494C108.8 27.9022 108.276 27.8782 107.728 27.9775C107.184 28.0812 106.626 28.3123 106.052 28.6709C105.479 29.0294 104.908 29.5216 104.338 30.1473L103.72 30.8259C103.145 31.4564 102.704 32.0761 102.396 32.685C102.092 33.289 101.915 33.8711 101.862 34.4311C101.819 34.9908 101.894 35.5127 102.087 35.9968C102.285 36.4853 102.601 36.9268 103.034 37.3214C103.486 37.7335 103.965 38.0153 104.47 38.1669C104.975 38.3185 105.496 38.3402 106.035 38.2322C106.583 38.1237 107.139 37.8857 107.702 37.5184C108.27 37.1463 108.842 36.645 109.416 36.0145Z" fill="#34383D"/>
<path d="M120.183 37.3463L108.176 44.9626L107.166 43.371L119.173 35.7547L120.183 37.3463ZM124.875 44.7434L114.963 43.7216L113.174 40.9013L114.337 39.817L115.681 41.9363L123.625 42.7725L124.875 44.7434ZM111.853 50.7598L114.599 42.692L116.558 42.6986L113.088 52.706L111.853 50.7598Z" fill="#34383D"/>
<path d="M120.513 56.1777C123.682 65.4997 124.113 75.5349 121.754 85.0942C119.394 94.6534 114.344 103.336 107.202 110.113C100.059 116.89 91.1236 121.478 81.4537 123.332C71.7839 125.187 61.7851 124.23 52.6421 120.576" stroke="#34383D"/>
<path d="M74.9412 59.125C79.5675 59.6388 83.2225 63.2888 83.7412 67.915" stroke="#34383D" stroke-width="1.5" stroke-linecap="round" stroke-linejoin="round"/>
<path d="M74.9412 63.5537C77.155 63.9837 78.885 65.715 79.3162 67.9287" stroke="#34383D" stroke-width="1.5" stroke-linecap="round" stroke-linejoin="round"/>
<path fill-rule="evenodd" clip-rule="evenodd" d="M70.7894 71.5905C75.7756 76.5755 76.9068 70.8084 80.0816 73.981C83.1423 77.0409 84.9028 77.654 81.0235 81.5309C80.5378 81.9213 77.4516 86.6178 66.6056 75.7746C55.7582 64.93 60.452 61.8406 60.8424 61.3549C64.7297 57.4673 65.3335 59.2367 68.3942 62.2967C71.5677 65.4706 65.8032 66.6055 70.7894 71.5905Z" stroke="#34383D" stroke-width="1.5" stroke-linecap="round" stroke-linejoin="round"/>
</svg>
