<svg width="34" height="34" viewBox="0 0 34 34" fill="none" xmlns="http://www.w3.org/2000/svg">
<path d="M16.7107 33.1001C7.62139 33.1001 0.499992 25.8522 0.499992 16.6001C0.499992 12.6082 1.86069 8.778 4.33349 5.8157C4.52929 5.5825 4.87469 5.5528 5.10789 5.7464C5.34109 5.9411 5.37299 6.2876 5.17829 6.5208C2.87049 9.2851 1.59999 12.8645 1.59999 16.6001C1.59999 25.2362 8.23739 32.0001 16.7107 32.0001C25.3622 32.0001 32.4 25.0921 32.4 16.6001C32.4 8.1081 25.3622 1.2001 16.7107 1.2001C14.0267 1.2001 11.4164 1.8821 9.16689 3.1713C8.90619 3.3176 8.56739 3.2307 8.41669 2.9667C8.26599 2.7027 8.35729 2.3672 8.62129 2.2154C11.0369 0.831598 13.8342 0.100098 16.7107 0.100098C25.9683 0.100098 33.5 7.502 33.5 16.6001C33.5 25.6982 25.9683 33.1001 16.7107 33.1001Z" fill="#DF9130"/>
<path d="M7.69729 4.00703C7.69729 4.30953 7.44979 4.55703 7.14729 4.55703C6.84479 4.55703 6.59729 4.30953 6.59729 4.00703C6.59729 3.70453 6.84479 3.45703 7.14729 3.45703C7.44979 3.45703 7.69729 3.70343 7.69729 4.00703Z" fill="#DF9130"/>
<path d="M20.905 25.4197C20.7829 25.4197 20.6586 25.379 20.5574 25.2954L14.2181 20.1023C14.0938 20.0011 14.0201 19.8504 14.0157 19.6898C14.0124 19.5292 14.0784 19.3763 14.1972 19.2685L18.9019 15.0225C19.1274 14.8168 19.475 14.8366 19.6785 15.0621C19.8831 15.2876 19.8644 15.6352 19.6389 15.8387L15.4083 19.6557L21.2526 24.444C21.488 24.6365 21.5221 24.983 21.3296 25.2184C21.2218 25.3504 21.0634 25.4197 20.905 25.4197Z" fill="#DF9130"/>
<path d="M21.5727 25.6243C21.2812 25.6243 20.9677 25.533 20.6388 25.3515L17.0242 22.4464L15.1718 24.1547C14.9144 24.4066 14.5998 24.7124 13.9739 24.7124C13.2039 24.7124 13.0246 24.3065 12.9069 23.8896C12.886 23.8181 12.8629 23.7345 12.8288 23.6388L11.5022 19.2729L7.70059 18.0871C6.80519 17.8121 6.68529 17.2632 6.67539 17.041C6.65999 16.6714 6.85249 16.1445 7.85679 15.7419L24.1896 9.44003C24.6571 9.25743 25.206 9.40483 25.5228 9.79533C25.7461 10.0692 25.8319 10.4256 25.7593 10.7732L22.9378 24.2757C22.6848 25.4923 21.8983 25.6243 21.5727 25.6243ZM17 21.1704C17.1221 21.1704 17.2442 21.2111 17.3443 21.2925L21.2493 24.4407C21.7542 24.6816 21.7993 24.3472 21.862 24.0513L24.6835 10.5499L24.6142 10.4608L8.26159 16.766C8.06909 16.843 7.94259 16.9189 7.86559 16.975C7.90629 16.9948 7.96019 17.0157 8.02729 17.0366L12.1094 18.3104C12.2821 18.3654 12.4185 18.5018 12.4713 18.6756L13.8727 23.2912C13.909 23.388 13.9398 23.498 13.9662 23.5904C13.9684 23.597 13.9706 23.6047 13.9717 23.6113C14.118 23.6102 14.195 23.5706 14.3985 23.3715L16.6271 21.3145C16.7327 21.2199 16.8658 21.1704 17 21.1704Z" fill="#DF9130"/>
<path d="M21.4473 13.9069C21.4473 14.2094 21.1998 14.4569 20.8973 14.4569C20.5948 14.4569 20.3473 14.2094 20.3473 13.9069C20.3473 13.6044 20.5948 13.3569 20.8973 13.3569C21.1998 13.3569 21.4473 13.6033 21.4473 13.9069Z" fill="#DF9130"/>
</svg>
