<svg width="34" height="34" viewBox="0 0 34 34" fill="none" xmlns="http://www.w3.org/2000/svg">
<path d="M16.8044 33.1001C13.6496 33.1001 10.5938 32.208 7.9494 30.5184L2.0666 32.3983C1.8697 32.461 1.653 32.4082 1.5067 32.2608C1.3615 32.1134 1.3109 31.8956 1.378 31.6998L3.2755 26.0392C1.3285 23.2672 0.300003 20.0101 0.300003 16.6001C0.300003 12.1165 2.0732 7.92 5.2929 4.7839C5.5096 4.5727 5.8583 4.5771 6.0706 4.7938C6.2818 5.0116 6.2774 5.3603 6.0596 5.5715C3.0555 8.4997 1.4 12.4157 1.4 16.6001C1.4 19.8715 2.4142 22.9922 4.3315 25.6245C4.436 25.7686 4.4646 25.9545 4.4074 26.1239L2.7662 31.0211L7.8625 29.392C8.0209 29.3403 8.1947 29.3656 8.3344 29.4569C10.8479 31.1201 13.7772 32.0001 16.8044 32.0001C25.2942 32.0001 32.2 25.0921 32.2 16.6001C32.2 8.1092 25.2942 1.2001 16.8044 1.2001C16.8033 1.2001 16.8022 1.2001 16.8011 1.2001C14.4174 1.2001 12.1393 1.7292 10.0207 2.772C9.7479 2.9051 9.419 2.794 9.2848 2.5223C9.1506 2.2506 9.2617 1.9195 9.5356 1.7853C11.806 0.667698 14.2502 0.100098 16.7956 0.100098C25.8992 0.100098 33.3 7.502 33.3 16.6001C33.3 25.6982 25.8992 33.1001 16.8044 33.1001Z" fill="#DF9130"/>
<path d="M21.8622 25.9424C20.7501 25.9424 19.198 25.5134 16.9793 24.5938C14.083 23.3948 11.212 20.8824 8.8943 17.5219L8.8118 17.4042C8.0462 16.3581 6.8065 14.3539 6.8065 12.2617C6.8065 9.80981 8.033 8.56571 8.5577 8.03441C9.0516 7.52731 9.7897 7.25781 10.6191 7.25781C10.8281 7.25781 11.0151 7.26771 11.1856 7.27761C11.8841 7.30511 12.2889 7.48111 12.6739 8.40181L13.0732 9.36981C13.4956 10.3939 14.0159 11.6578 14.0973 11.8283C14.1875 12.0142 14.4614 12.5851 14.1567 13.1791C13.9939 13.5267 13.8344 13.7104 13.6155 13.9634C13.4615 14.1405 13.3592 14.2505 13.2547 14.3605C13.1337 14.4903 13.0105 14.6179 12.8873 14.773C12.675 15.0216 12.675 15.0216 12.7465 15.1459C13.1535 15.8334 14.0192 17.1534 15.2248 18.2259C16.789 19.6174 18.0529 20.1289 18.6601 20.3753L18.8108 20.4369C18.9703 20.5029 19.1716 20.5502 19.3223 20.3907C19.5951 20.097 19.9405 19.6141 20.3057 19.1026L20.5246 18.7957C20.9085 18.2534 21.3815 18.139 21.7104 18.139C21.9029 18.139 22.1031 18.1775 22.3077 18.2545C22.8192 18.4327 25.5109 19.7736 25.5384 19.7868L25.7969 19.9133C26.1819 20.0981 26.4855 20.2444 26.6593 20.5502C26.9112 20.988 26.8122 22.1364 26.4294 23.2199C25.9707 24.5168 24.2657 25.5299 22.8951 25.8247C22.6223 25.8819 22.2978 25.9424 21.8622 25.9424ZM10.618 8.35781C10.0988 8.35781 9.6258 8.51401 9.3816 8.76371C8.8745 9.27851 7.9054 10.2608 7.9054 12.2617C7.9054 13.5608 8.5489 15.1855 9.6709 16.7178L9.7985 16.8993C11.9963 20.0871 14.6957 22.4598 17.3984 23.5785C19.4807 24.442 20.8986 24.8435 21.8611 24.8435C22.1911 24.8435 22.4364 24.7973 22.6608 24.75C23.7311 24.519 25.0786 23.7281 25.3877 22.8536C25.7221 21.9109 25.7155 21.186 25.6759 21.0419C25.6737 21.076 25.4757 20.9825 25.3162 20.9055L25.0423 20.7713C24.2712 20.3852 22.278 19.4117 21.9293 19.2896C21.8369 19.2544 21.7665 19.2401 21.7071 19.2401C21.6576 19.2401 21.5553 19.2401 21.4167 19.4359L21.1967 19.7439C20.8106 20.2851 20.4465 20.7955 20.1231 21.1431C19.7084 21.5864 18.9967 21.7096 18.384 21.4544L18.2443 21.3972C17.6316 21.1497 16.1961 20.5689 14.49 19.0509C13.1744 17.8783 12.2361 16.4516 11.7939 15.7047C11.3286 14.9028 11.8005 14.3506 12.0271 14.0855C12.1712 13.9062 12.312 13.7577 12.4528 13.6081C12.5452 13.5102 12.6376 13.4123 12.7322 13.3023C12.9797 13.0174 13.0611 12.9228 13.1678 12.6951C13.1997 12.6324 13.2173 12.5433 13.1029 12.3057C13.0193 12.1297 12.4847 10.8383 12.0546 9.79111L11.6564 8.82641C11.4749 8.39081 11.4749 8.39081 11.1295 8.37761C10.9711 8.36661 10.8039 8.35781 10.618 8.35781Z" fill="#DF9130"/>
<path d="M7.44999 3.9501C7.75375 3.9501 7.99999 3.70385 7.99999 3.4001C7.99999 3.09634 7.75375 2.8501 7.44999 2.8501C7.14624 2.8501 6.89999 3.09634 6.89999 3.4001C6.89999 3.70385 7.14624 3.9501 7.44999 3.9501Z" fill="#DF9130"/>
</svg>
