<svg width="34" height="34" fill="none" xmlns="http://www.w3.org/2000/svg"><path d="M16.71 33.1C7.622 33.1.5 25.852.5 16.6c0-3.992 1.36-7.822 3.833-10.784a.55.55 0 0 1 .845.705C2.87 9.285 1.6 12.864 1.6 16.6 1.6 25.235 8.237 32 16.71 32c8.652 0 15.69-6.909 15.69-15.4 0-8.493-7.038-15.4-15.69-15.4-2.683 0-5.294.681-7.543 1.97-.26.147-.6.06-.75-.204a.551.551 0 0 1 .204-.752C11.037.832 13.834.1 16.711.1 25.968.1 33.5 7.502 33.5 16.6c0 9.098-7.532 16.5-16.79 16.5Z" fill="#DF9130"/><path d="M7.697 4.007c0 .303-.247.55-.55.55a.552.552 0 0 1-.55-.55.55.55 0 0 1 1.1 0ZM20.905 25.42a.546.546 0 0 1-.348-.125l-6.339-5.193a.551.551 0 0 1-.02-.834l4.704-4.245a.548.548 0 0 1 .776.04.549.549 0 0 1-.04.776l-4.23 3.817 5.845 4.788a.55.55 0 0 1-.348.976Z" fill="#DF9130"/><path d="M21.573 25.624c-.292 0-.605-.091-.934-.272l-3.615-2.906-1.852 1.709c-.258.252-.572.557-1.198.557-.77 0-.95-.405-1.067-.822-.021-.072-.044-.155-.078-.251l-1.327-4.366-3.801-1.186c-.896-.275-1.016-.824-1.026-1.046-.015-.37.177-.896 1.182-1.3L24.19 9.44a1.182 1.182 0 0 1 1.333.355c.223.274.309.63.236.978l-2.821 13.503c-.253 1.216-1.04 1.348-1.365 1.348ZM17 21.17c.122 0 .244.041.344.122l3.905 3.149c.505.24.55-.094.613-.39l2.822-13.501-.07-.09-16.352 6.306a1.827 1.827 0 0 0-.396.209c.04.02.094.04.161.062l4.082 1.273c.173.055.31.192.362.366l1.402 4.615c.036.097.067.207.093.3a.147.147 0 0 1 .006.02c.146 0 .223-.04.427-.24l2.228-2.056A.559.559 0 0 1 17 21.17Z" fill="#DF9130"/><path d="M21.447 13.907c0 .302-.247.55-.55.55a.552.552 0 0 1-.55-.55.55.55 0 0 1 1.1 0Z" fill="#DF9130"/></svg>