<svg width="150" height="150" fill="none" xmlns="http://www.w3.org/2000/svg"><g clip-path="url(#a)" stroke="#DF9130" stroke-width="7" stroke-miterlimit="10" stroke-linecap="round" stroke-linejoin="round"><path d="M93.75 89.063H23.437c-5.156 0-9.375-4.22-9.375-9.376v-18.75c0-5.156 4.22-9.374 9.376-9.374h28.125l51.562 18.75v9.374c0 5.157-4.219 9.376-9.375 9.376ZM23.438 37.5v14.063m75 79.687H18.75c-7.5 0-14.063-6.094-14.063-14.062 0-7.501 6.094-14.063 14.063-14.063h79.688c7.5 0 14.062 6.094 14.062 14.063 0 7.968-6.094 14.062-14.063 14.062Zm23.437-79.687v37.5l23.437 32.812m-42.187-42.187 18.75 9.374"/><path d="M103.125 70.313 95.156 22.03c-.937-4.687-4.687-7.968-9.375-7.968H60.937c-5.156 0-9.374 4.218-9.374 9.374v28.125m-18.75 18.752h18.75"/></g><defs><clipPath id="a"><path fill="#fff" d="M0 0h150v150H0z"/></clipPath></defs></svg>