<svg width="34" height="25" fill="none" xmlns="http://www.w3.org/2000/svg"><path d="M28.7 24.7a.55.55 0 0 1-.55-.55V9.85a.55.55 0 0 1 1.1 0v14.3a.55.55 0 0 1-.55.55Zm-24.2 0a.55.55 0 0 1-.55-.55V9.85a.55.55 0 0 1 1.1 0v14.3a.55.55 0 0 1-.55.55Zm12.1-13.824a.548.548 0 0 1-.31-.096L2.908 1.623A.55.55 0 1 1 3.53.716L16.6 9.659l9.854-6.742a.55.55 0 0 1 .621.908l-10.164 6.954a.547.547 0 0 1-.311.097Z" fill="#DF9130"/><path d="M30.35 24.7H2.85A2.754 2.754 0 0 1 .1 21.95V3.25a.55.55 0 0 1 1.1 0v18.7c0 .91.74 1.65 1.65 1.65h27.5c.91 0 1.65-.74 1.65-1.65V3.25c0-.91-.74-1.65-1.65-1.65a.55.55 0 0 1 0-1.1 2.754 2.754 0 0 1 2.75 2.75v18.7a2.754 2.754 0 0 1-2.75 2.75Z" fill="#DF9130"/><path d="M16.6 15.9a.55.55 0 0 1-.312-.097L1.273 5.448A2.712 2.712 0 0 1 .1 3.214 2.717 2.717 0 0 1 2.814.5h27.571a2.714 2.714 0 0 1 1.542 4.948L16.912 15.803a.55.55 0 0 1-.312.097ZM2.814 1.6a1.615 1.615 0 0 0-.917 2.943L16.6 14.683l14.703-10.14a1.614 1.614 0 0 0-.917-2.943H2.814Z" fill="#DF9130"/></svg>