<svg width="150" height="150" fill="none" xmlns="http://www.w3.org/2000/svg"><path d="M76.116 70.886c13.152 0 23.855-10.703 23.855-23.858 0-13.151-10.701-23.849-23.855-23.849-13.15 0-23.848 10.698-23.848 23.849 0 13.155 10.697 23.858 23.848 23.858Z" fill="#191C20"/><path d="M93.51 66.97c-4.692 4.142-10.843 6.677-17.579 6.677-6.672 0-12.947-2.49-17.625-6.562-.04.026-.439.064-.483.084-7.708 3.646-12.693 9.944-12.693 17.738v42.896h60.744V84.902c-.002-7.764-4.518-14.287-12.364-17.931ZM31.323 82.081v20.873H6.476V78.429c0-4.52 2.711-7.858 7.06-9.92 2.841 2.357 6.735 3.776 10.706 3.776 3.743 0 7.31-1.27 10.074-3.39l1.993 1.402c-4.266 4.433-4.985 11.453-4.985 11.784Zm-6.83-12.557c-7.523 0-13.644-6.123-13.644-13.65 0-7.526 6.12-13.65 13.644-13.65 7.53 0 13.656 6.124 13.656 13.65 0 7.527-6.125 13.65-13.656 13.65Zm90.379 1.159 2.182-1.401a16.533 16.533 0 0 0 10.019 3.387c3.971 0 7.762-1.419 10.605-3.776 4.35 2.064 6.844 5.4 6.844 9.92v24.141h-24.845V82.467c0-.331-.536-7.353-4.805-11.784Zm-1.599-14.426c0-7.527 6.127-13.65 13.657-13.65 7.523 0 13.643 6.123 13.643 13.65 0 7.526-6.12 13.651-13.643 13.651-7.53 0-13.657-6.125-13.657-13.651Z" fill="#191C20"/><path d="M75.584 76.638c-16.194 0-29.37-13.178-29.37-29.378 0-16.195 13.176-29.37 29.37-29.37 16.196 0 29.377 13.175 29.377 29.37 0 16.2-13.18 29.378-29.377 29.378Zm0-50.466c-11.63 0-21.088 9.46-21.088 21.088 0 11.634 9.459 21.096 21.088 21.096 11.63 0 21.094-9.462 21.094-21.096-.002-11.628-9.465-21.087-21.094-21.087Z" fill="#DF9130"/><path d="M106.879 130.937a4.142 4.142 0 0 1-4.142-4.143v-41.66c0-6.785-3.862-12.288-10.874-15.493a4.143 4.143 0 0 1 3.445-7.533c9.987 4.568 15.712 12.96 15.712 23.028v41.658a4.14 4.14 0 0 1-4.141 4.143Zm-62.18.003a4.142 4.142 0 0 1-4.143-4.142V85.136c0-9.902 5.507-18.187 15.11-22.73a4.142 4.142 0 0 1 3.544 7.487c-6.784 3.21-10.37 8.481-10.37 15.243v41.66a4.142 4.142 0 0 1-4.142 4.144ZM24.478 75.162c-10.566 0-19.166-8.602-19.166-19.173 0-10.572 8.6-19.171 19.166-19.171 10.576 0 19.18 8.599 19.18 19.172-.002 10.57-8.604 19.172-19.18 19.172Zm0-30.062c-6 0-10.883 4.885-10.883 10.888s4.883 10.887 10.883 10.887c6.01 0 10.895-4.884 10.895-10.887S30.486 45.1 24.479 45.1Z" fill="#DF9130"/><path d="M6.086 106.869a4.142 4.142 0 0 1-4.143-4.142V78.544c0-6.646 3.452-11.942 9.719-14.913a4.143 4.143 0 0 1 5.515 1.97 4.138 4.138 0 0 1-1.968 5.516c-3.352 1.588-4.981 4.018-4.981 7.427v24.183a4.142 4.142 0 0 1-4.142 4.142Zm120.761-31.707c-10.571 0-19.172-8.602-19.172-19.173 0-10.572 8.601-19.171 19.172-19.171s19.171 8.599 19.171 19.172c0 10.57-8.6 19.172-19.171 19.172Zm0-30.062c-6.005 0-10.887 4.885-10.887 10.888s4.884 10.887 10.887 10.887c6.004 0 10.886-4.884 10.886-10.887S132.851 45.1 126.847 45.1Z" fill="#DF9130"/><path d="M145.484 106.869a4.141 4.141 0 0 1-4.141-4.142V78.544c0-3.476-1.693-5.942-5.181-7.538a4.14 4.14 0 0 1-2.04-5.489 4.14 4.14 0 0 1 5.489-2.04c6.458 2.956 10.015 8.307 10.015 15.069v24.183a4.141 4.141 0 0 1-4.142 4.14Z" fill="#DF9130"/></svg>