<svg width="186" height="71" fill="none" xmlns="http://www.w3.org/2000/svg"><g clip-path="url(#a)"><path d="M54.07 49.946v3.008c0 6.01-2.998 9.017-8.994 9.02H30.087v9.02h-5.994V40.925h20.983c5.998 0 8.996 3.006 8.994 9.02Zm-5.995 0c0-2.003-1-3.005-2.999-3.005H30.087v9.02h14.99c2 0 3-1.002 2.998-3.008v-3.007Zm38.971 21.047H81.05v-6.015H63.063v6.016H57.07v-21.55c0-6.011 2.998-9.017 8.994-9.017h11.99c5.997 0 8.995 3.006 8.993 9.017v21.55Zm-5.996-12.01v-9.538c0-2.003-1-3.005-2.999-3.005h-11.99c-1.999 0-2.998 1.002-2.998 3.005v9.538H81.05Zm38.972 12.01h-5.995v-12.01H96.04V71.01h-5.995V40.926h5.995v12.027h17.987V40.926h5.995v30.067Zm32.976 0h-5.995V50.138l-17.987 20.855h-5.995V40.926h5.995V61.78l17.987-20.855h5.995v30.067Zm32.976-24.052h-11.993v24.052h-5.998V46.941h-11.989v-6.015h29.977l.003 6.015ZM81.938 16.825h-6.02c-1.734 0-2.593-.87-2.58-2.607v-3.432c0-1.738.86-2.6 2.58-2.587h6.02v1.724h-6.02a.759.759 0 0 0-.862.863v3.448a.764.764 0 0 0 .513.832.759.759 0 0 0 .348.031h6.021v1.728Zm9.459-6.902h-3.441v6.902h-1.72V9.922h-3.44V8.199h8.6v1.724Zm9.461.863v.86c0 1.728-.86 2.59-2.58 2.588h-4.302v2.607h-1.718V8.199h6.02c1.718 0 2.578.862 2.58 2.587Zm-1.722 0a.764.764 0 0 0-.858-.863h-4.302v2.587h4.302a.757.757 0 0 0 .827-.515.765.765 0 0 0 .031-.348v-.86Zm11.181 3.594c0 1.723-.86 2.586-2.58 2.588h-3.438c-1.72 0-2.58-.863-2.58-2.588v-3.737c0-1.727.86-2.59 2.58-2.59h3.441c1.722 0 2.582.863 2.58 2.59l-.003 3.737Zm-1.719 0v-3.737a.771.771 0 0 0-.214-.65.75.75 0 0 0-.647-.217h-3.438a.755.755 0 0 0-.644.217.764.764 0 0 0-.214.647v3.74a.762.762 0 0 0 .511.83.753.753 0 0 0 .347.03h3.441a.755.755 0 0 0 .642-.215.773.773 0 0 0 .184-.297.772.772 0 0 0 .032-.348Zm11.18 2.445h-1.719v-5.983l-5.163 5.982h-1.718V8.2h1.718v5.98l5.163-5.98h1.719v8.626Zm9.459-6.902h-3.438v6.902h-1.722V9.922h-3.438V8.199h8.598v1.724Zm9.461 0h-6.878v1.723h5.159v1.715h-5.159v1.723h6.878v1.727h-8.6V8.2h8.6v1.724Zm9.465 6.902h-1.722V9.922h-2.58c-.419 0-.705.286-.858.863l-1.696 6.039h-1.748c1.06-3.452 1.632-5.465 1.719-6.039.507-1.738 1.367-2.6 2.58-2.587h4.305v8.626Zm6.875 0h-6.02V8.199h1.722v2.587h4.298c1.723 0 2.582.863 2.58 2.588v.86c0 1.727-.86 2.59-2.58 2.59Zm.861-3.464a.765.765 0 0 0-.512-.832.76.76 0 0 0-.349-.032h-4.298v2.587h4.298a.76.76 0 0 0 .861-.863v-.86Zm11.181 3.464h-1.722V13.36h-5.173v3.463h-1.719V8.2h1.719v3.447h5.16V8.2h1.722l.013 8.626Zm9.462 0h-1.735v-1.727h-5.147v1.726h-1.719v-6.19c0-1.728.86-2.592 2.58-2.592h3.437c1.733 0 2.6.864 2.6 2.591l-.016 6.192Zm-1.735-3.464v-2.718a.76.76 0 0 0-.849-.867h-3.437a.762.762 0 0 0-.861.864v2.72h5.147Zm5.172-5.162H186v8.626h-1.719v-2.607h-1.865l-2.58 2.607h-2.43l2.58-2.607c-1.718 0-2.578-.863-2.58-2.588v-.844c0-1.727.858-2.59 2.573-2.587Zm-.861 3.447a.767.767 0 0 0 .215.648.766.766 0 0 0 .646.216h4.302V9.923h-4.302a.756.756 0 0 0-.646.215.767.767 0 0 0-.215.648v.86Zm-97.18 17.812h-2.193l-2.74-3.447h-1.949v3.447h-1.718v-8.625h1.718v3.45h1.95l2.752-3.45h2.193l-3.454 4.314 3.441 4.311Zm9.039-2.444c0 1.727-.86 2.59-2.58 2.588h-3.45c-1.72 0-2.58-.863-2.58-2.588v-3.737c0-1.725.86-2.588 2.58-2.588h3.431c1.72 0 2.58.863 2.58 2.588l.02 3.737Zm-1.722 0v-3.737a.76.76 0 0 0-.877-.86h-3.431a.759.759 0 0 0-.861.86v3.737a.766.766 0 0 0 .512.833.759.759 0 0 0 .349.031h3.431a.76.76 0 0 0 .868-.864h.01Zm12.893 2.444h-1.722v-5.402l-3.438 5.402-3.44-5.402v5.402h-1.723v-8.625h1.722l3.441 5.406 3.438-5.406h1.722v8.625Zm9.458 0h-1.718V22.56h-5.16v6.898h-1.729v-8.625h8.601l.006 8.625Zm9.462 0h-1.719v-1.723h-5.163v1.723h-1.718v-6.191c0-1.725.859-2.587 2.579-2.587h3.441c1.718 0 2.578.862 2.58 2.587v6.191Zm-1.719-3.447v-2.734a.774.774 0 0 0-.216-.646.762.762 0 0 0-.645-.215h-3.441a.757.757 0 0 0-.828.512.763.763 0 0 0-.033.349v2.734h5.163Zm11.181 3.447h-1.722v-3.447h-5.16v3.447h-1.719v-8.625h1.719v3.45h5.16v-3.45h1.722v8.625Zm9.458 0h-1.719v-5.98l-5.159 5.98h-1.722v-8.625h1.722v5.983l5.159-5.983h1.719v8.625Zm3.441-8.625h6.034v8.625h-1.722v-2.587h-1.862l-2.59 2.587h-2.437l2.58-2.587c-1.722 0-2.582-.862-2.58-2.587v-.864c-.002-1.725.857-2.587 2.577-2.587Zm-.861 3.45a.767.767 0 0 0 .215.649.758.758 0 0 0 .646.215h4.299V22.56h-4.299a.754.754 0 0 0-.645.214.774.774 0 0 0-.216.646v.864Z" fill="#000"/><path d="m26.354 8.622-.497-3.037-13.02-1.287-.669 3.797 21.897 2.694-7.71-2.167Z" fill="#DF9130"/><path d="m36.771 9.851-9.913-4.78-.335.462.445 2.6 7.373 2.05 2.43-.332Zm-.848 2.154-1.082 3.31 10.235 10.282-10.583-9.212-.73 2.242 11.813 13.077-.185 2.483 3.496 3.887C47.763 27.816 43.49 17.73 41.59 15.166c-1.901-2.565-5.667-3.161-5.667-3.161Zm16.652-8.163-8.62 5.077 8.636-3.643c1.807.267 3.419 1.176 4.855 2.672-.767-1.897-2.967-3.689-4.87-4.106Zm-19.42 11.383-.095.443L6.037 11.74l-3.743-.502-1.105.495 10.729 6.59 20.44.606.797-3.705ZM11.1 70.935c.412.026.844.049 1.299.058.455.01.903 0 1.326 0-.275-5.563-.553-11.126-.832-16.687a22.707 22.707 0 0 1-1.908-14.964l1.739-18.9-3.386-1.933-2.154 23.358a63.302 63.302 0 0 0 .185 6.922c.119 1.67.325 3.331.618 4.98.27 1.479.438 1.977.926 4.343.324 1.532.513 2.626.763 4.037.377 2.066.88 5.038 1.423 8.786Zm8.996-50.021-1.221-.173-.683 28.462 1.904-28.289Z" fill="#DF9130"/><path d="m21.048 20.308-.903-.006-1.95 28.904.683-28.461.097-.45-3.45-.03 5.523.046 12.672.111 10.446 11.562-.162 1.56-.065.633 5.056 5.598.864-.267.854 1.9 1.229-.978.126-2.844.975 1.606.146.241 1.43-1.144-.24-2.78 1.192 2.018 1.26-1.007-.038-2.842 1.01 2.06.026-.016 1.225-.978-.192-2.972 1.248 2.118.575-.462.562-.447.02-1.082.039-1.789 1.114 1.93 1.043-.835c-.87-8.857-.936-13.81-3.532-22.974a6.074 6.074 0 0 0-.227-.651c-1.368-3.305-5.849-6.658-8.675-4.914l-1.934 1.196-5.8 3.584-4.714 2.933-1.573.978 4.133-3.26 1.39-1.094L31.843.53l-2.044 1.73L8.09 0l-.324.29-.943.877-1.15 5.644-.188.938L0 10.874l.325 1.972 2.359 1.492.179 15.264-.67 1.228c.062 2.558.03 4.654.179 7.218.008.27.087.533.227.763a1.72 1.72 0 0 0 1.027.684l.465.14 1.589.486-.091 1.04v.169c0 .117-.02.238-.026.358 0 0 0 .19-.017.378-.22 6.765-.055 13.87-.055 13.87.107 3.323.179 8.247 0 15.057h5.199c-.975-6.693-1.907-11.51-2.626-14.771a42.99 42.99 0 0 1-1.072-7.32 40.92 40.92 0 0 1 .205-6.842l.016-.196L9.338 18.51l3.376 1.923-1.738 18.9c-.436 4.735-.12 10.617 2.362 14.876l.731 16.776h3.175c1.18 0 2.356-.007 3.528-.02m16-61.113-2.431.326-7.373-2.03-.445-2.607.325-.463.624-.84 9.3 5.614Zm-24.02-6.518.325-2.037L29.243 2.72l-.387.326L13.55 1.7l-.721 1.594-.104.234.03-.195ZM7.13 1.704 8.179.538l-.706 1.398L6.42 7.82h-.57l1.28-6.117Zm-.65 29.159-.725 8.016-.02.222v-.228l.862-22.065 1.036.652L6.48 30.863ZM33.155 15.22l-.796 3.709-20.441-.607L1.189 11.73l1.105-.495 1.361-.613 29.756 3.412-.256 1.186ZM12.168 8.095l.67-3.797 13.02 1.304.496 3.037 7.71 2.167-21.896-2.711Zm33.223 26.092.185-2.483-11.814-13.077.731-2.242 10.583 9.212-10.235-10.281 1.082-3.311a7.015 7.015 0 0 1 1.517-.202c6.912-.137 10.15 11.317 11.447 26.271l-3.496-3.887Zm7.2-28.911-8.636 3.643 8.62-5.077c1.904.417 4.104 2.21 4.874 4.106-1.44-1.496-3.051-2.408-4.858-2.672Z" fill="#000"/><path d="m6.037 11.741 27.023 3.927.095-.443.11-.515-27.228-2.97Z" fill="#000"/><path d="M185.516 34.483H73.338v1.63h112.178v-1.63Z" fill="#DF9130"/></g><defs><clipPath id="a"><path fill="#fff" d="M0 0h186v71H0z"/></clipPath></defs></svg>