<svg width="34" height="34" fill="none" xmlns="http://www.w3.org/2000/svg"><path d="M16.804 33.1a16.4 16.4 0 0 1-8.855-2.582l-5.882 1.88a.548.548 0 0 1-.689-.698l1.897-5.66A16.32 16.32 0 0 1 .3 16.6c0-4.484 1.773-8.68 4.993-11.816a.55.55 0 0 1 .767.788C3.056 8.5 1.4 12.416 1.4 16.6c0 3.271 1.014 6.392 2.932 9.024a.55.55 0 0 1 .075.5l-1.64 4.897 5.095-1.629a.551.551 0 0 1 .472.065A15.303 15.303 0 0 0 16.804 32c8.49 0 15.396-6.908 15.396-15.4 0-8.49-6.906-15.4-15.396-15.4h-.003c-2.384 0-4.662.53-6.78 1.572a.55.55 0 0 1-.485-.987A16.305 16.305 0 0 1 16.796.1C25.899.1 33.3 7.502 33.3 16.6c0 9.098-7.4 16.5-16.496 16.5Z" fill="#DF9130"/><path d="M21.862 25.942c-1.112 0-2.664-.429-4.883-1.348-2.896-1.2-5.767-3.712-8.085-7.072l-.082-.118c-.766-1.046-2.005-3.05-2.005-5.142 0-2.452 1.226-3.696 1.75-4.228.495-.507 1.233-.776 2.062-.776.21 0 .396.01.567.02.698.027 1.103.203 1.488 1.124l.4.968c.422 1.024.942 2.288 1.023 2.458.09.186.364.757.06 1.351-.163.348-.323.531-.541.784a12 12 0 0 1-.361.398c-.121.13-.245.257-.368.412-.212.249-.212.249-.14.373.406.687 1.272 2.007 2.478 3.08 1.564 1.391 2.828 1.903 3.435 2.15l.15.06c.16.067.362.114.512-.045.273-.294.619-.777.984-1.288l.219-.307c.384-.543.857-.657 1.185-.657.193 0 .393.038.598.116.511.178 3.203 1.519 3.23 1.532l.259.126c.385.185.688.331.862.637.252.438.153 1.586-.23 2.67-.458 1.297-2.163 2.31-3.534 2.605a4.74 4.74 0 0 1-1.033.117ZM10.618 8.358c-.52 0-.992.156-1.236.406-.508.515-1.477 1.497-1.477 3.498 0 1.299.644 2.923 1.766 4.456l.128.181c2.197 3.188 4.897 5.56 7.6 6.68 2.082.863 3.5 1.264 4.462 1.264.33 0 .575-.046.8-.093 1.07-.231 2.418-1.022 2.727-1.896.334-.943.327-1.668.288-1.812-.002.034-.2-.06-.36-.137l-.274-.134c-.77-.386-2.764-1.36-3.113-1.481a.63.63 0 0 0-.222-.05c-.05 0-.152 0-.29.196l-.22.308c-.386.541-.75 1.052-1.074 1.4-.415.442-1.126.566-1.739.31l-.14-.057c-.612-.247-2.048-.828-3.754-2.346-1.316-1.173-2.254-2.6-2.696-3.346-.465-.802.006-1.354.233-1.62.144-.179.285-.327.426-.477.092-.098.185-.196.28-.306.247-.285.328-.38.435-.607.032-.063.05-.152-.065-.39-.084-.175-.618-1.467-1.048-2.514l-.399-.965c-.181-.435-.181-.435-.527-.448a7.236 7.236 0 0 0-.511-.02ZM7.45 3.95a.55.55 0 1 0 0-1.1.55.55 0 0 0 0 1.1Z" fill="#DF9130"/></svg>